<svg width="105" height="97" viewBox="0 0 105 97" fill="none" xmlns="http://www.w3.org/2000/svg">
<path d="M46.5558 16.7227L15.468 11.7788C15.2292 11.7408 14.9865 11.7216 14.7461 11.7216C12.5057 11.7216 10.5508 13.3895 10.1989 15.6019L7.35089 33.5103C6.4317 39.2902 7.08693 44.6778 9.24626 49.09C11.3818 53.4541 14.9057 56.6565 19.4872 58.4163L15.5201 83.3635C15.464 83.7168 15.4345 84.0009 15.3134 84.0429C13.6182 84.6329 9.69027 84.2671 6.96076 84.2671C6.31233 84.2671 5.8 84.2575 5.43794 84.2382C5.16575 84.2238 4.92022 84.2169 4.68773 84.2169C1.29817 84.2169 0.299876 86.0202 0.0594456 87.5334C-0.342595 90.0621 1.31944 92.002 4.29391 92.4752L32.1447 96.9042C32.5439 96.9677 32.9357 97 33.3091 97C35.678 97 37.3621 95.6663 37.7035 93.5194C38.2672 89.972 34.7636 89.0287 33.6119 88.7185C31.547 88.1631 26.3293 86.3099 24.2743 85.465C24.1487 85.4134 24.2465 85.0885 24.3086 84.6992L28.2663 59.8121C33.2071 59.5584 37.583 57.576 40.976 54.0398C44.3522 50.5213 46.6187 45.6316 47.5303 39.8998L50.3783 21.9912C50.7772 19.4848 49.0621 17.1213 46.5558 16.7227ZM47.2986 21.5015L44.4506 39.4102C42.7523 50.0889 36.1322 56.7226 27.1736 56.7214C27.1736 56.7214 25.6071 56.6727 25.5422 57.0858C24.5215 63.5986 21.2287 84.2099 21.2287 84.2099C20.7447 87.2532 22.4339 88.1021 22.851 88.2626L22.8507 88.2632C23.1538 88.3768 30.304 91.059 32.8016 91.7307C34.7466 92.2544 34.6842 92.6487 34.6236 93.0301C34.5728 93.3485 34.488 93.8815 33.3091 93.8815C33.0993 93.8815 32.8722 93.8622 32.6346 93.8245L4.78384 89.3956C2.96729 89.1064 3.09233 88.3196 3.13939 88.0233C3.19808 87.6544 3.24883 87.336 4.68773 87.336C4.87854 87.336 5.07474 87.3423 5.27406 87.353C5.69595 87.3754 6.24769 87.3862 6.96047 87.3862C10.2372 87.3862 15.5839 87.1537 15.8099 87.1441L15.9261 87.1347C16.1507 87.1081 18.1328 86.7888 18.5998 83.854C18.5998 83.854 21.8776 63.5207 22.9125 56.7339C22.9979 56.1748 21.6982 55.8862 21.6982 55.8862C13.0328 53.1717 8.71579 44.7858 10.4308 34.0013L13.2789 16.093C13.4042 15.3036 14.1771 14.7337 14.9777 14.8599L46.0656 19.8038C46.8739 19.9313 47.427 20.6935 47.2986 21.5015Z" fill="#32B1CC"/>
<path d="M41.4747 26.6327C38.0783 26.0926 27.4121 36.6757 18.9874 35.3358C17.6466 35.1226 13.2876 31.813 12.8947 34.2836C11.3747 43.8424 15.1453 52.3885 24.7052 53.9088C34.2649 55.429 40.5002 48.4741 42.0202 38.9156L43.5243 29.4572C43.7372 28.1164 42.8152 26.8459 41.4747 26.6327Z" fill="#32B1CC"/>
<path d="M104.909 87.5337C104.668 86.0205 103.67 84.2173 100.28 84.2173C100.048 84.2173 99.8023 84.2238 99.5301 84.2385C99.1689 84.2573 98.6563 84.2672 98.0076 84.2672C95.2789 84.2672 91.5131 84.3882 89.6549 84.0429C89.5293 84.0194 89.5049 83.7174 89.4482 83.3636L85.4811 58.4161C90.0626 56.656 93.5865 53.4538 95.7221 49.0901C97.8811 44.6778 98.5366 39.2906 97.6174 33.51L94.7694 15.6014C94.4176 13.3893 92.4626 11.7213 90.2222 11.7213C89.9818 11.7213 89.7391 11.7406 89.5004 11.7786L58.4126 16.7224C55.9062 17.1211 54.1911 19.4845 54.5898 21.9912L57.4378 39.8999C58.3496 45.6316 60.6158 50.5207 63.9921 54.0396C67.385 57.5754 71.761 59.5584 76.7017 59.8122L80.6594 84.6993C80.7215 85.0888 80.814 85.4018 80.6938 85.4654C78.3737 86.6939 73.4216 88.1631 71.3555 88.7185C70.2041 89.0287 66.7009 89.972 67.2642 93.5198C67.6056 95.6663 69.29 97.0001 71.6586 97.0001C72.032 97.0001 72.4239 96.9677 72.8231 96.9042L100.674 92.4753C103.648 92.0021 105.311 90.0624 104.909 87.5337ZM100.184 89.3953L72.3334 93.8243C72.0958 93.862 71.8687 93.8813 71.6589 93.8813C70.48 93.8813 70.3952 93.3482 70.3445 93.0301C70.2838 92.6482 70.2209 92.2541 72.1661 91.7304C74.664 91.0588 81.814 88.3766 82.1173 88.2629L82.1171 88.2623C82.5344 88.1019 84.2237 87.253 83.7397 84.2096C83.7397 84.2096 80.6555 64.8221 79.423 57.3344C79.3135 56.6699 77.7944 56.7215 77.7944 56.7215C68.8358 56.7215 62.2164 50.0881 60.5175 39.4099L57.6694 21.5016C57.541 20.6932 58.0942 19.9311 58.9025 19.8024L89.9903 14.8585C90.7901 14.7326 91.5639 15.3023 91.6892 16.0913L94.5372 33.9997C96.2523 44.7842 91.9347 53.17 83.2699 55.8845C83.2699 55.8845 81.9362 56.2089 82.0425 56.9177C83.0711 63.7747 86.3682 83.8529 86.3682 83.8529C86.8349 86.7874 88.8173 87.1067 89.0419 87.1333L89.1579 87.1424C89.3841 87.1523 94.7309 87.3848 98.0076 87.3848C98.7209 87.3848 99.2724 87.3741 99.6937 87.3519C99.8933 87.3414 100.09 87.3349 100.28 87.3349C101.719 87.3349 101.77 87.6536 101.829 88.0222C101.875 88.3193 102.001 89.1067 100.184 89.3953Z" fill="#32B1CC"/>
<path d="M92.0733 34.2837C91.6801 31.813 87.3211 35.1226 85.9806 35.3358C77.5556 36.6758 66.8899 26.0923 63.4936 26.6327C62.1528 26.8459 61.2313 28.1167 61.444 29.4572L62.9481 38.9156C64.4681 48.4742 70.7037 55.4291 80.2627 53.9088C89.823 52.3888 93.5933 43.8425 92.0733 34.2837Z" fill="#32B1CC"/>
<path d="M49.9133 11.2973L42.2581 6.47737C41.53 6.01891 40.5665 6.23723 40.1075 6.96617C39.6488 7.69512 39.8674 8.65769 40.5963 9.11672L48.2515 13.9367C48.5095 14.0991 48.797 14.1765 49.0811 14.1765C49.5988 14.1765 50.1058 13.9185 50.4021 13.4479C50.8605 12.7189 50.6419 11.7561 49.9133 11.2973Z" fill="#32B1CC"/>
<path d="M55.6047 14.1763C55.8888 14.1763 56.1766 14.0989 56.4346 13.9364L64.0898 9.11648C64.8182 8.65745 65.0374 7.69488 64.5786 6.96593C64.1193 6.23699 63.1565 6.01839 62.4281 6.47713L54.7729 11.2971C54.0442 11.7561 53.8253 12.719 54.2841 13.4476C54.5806 13.9186 55.087 14.1763 55.6047 14.1763Z" fill="#32B1CC"/>
<path d="M52.3428 0C51.4818 0 50.7834 0.698042 50.7834 1.55939V9.2146C50.7834 10.076 51.4818 10.774 52.3428 10.774C53.2039 10.774 53.9022 10.076 53.9022 9.2146V1.55939C53.9022 0.698042 53.2039 0 52.3428 0Z" fill="#32B1CC"/>
</svg>
