<svg width="46" height="24" viewBox="0 0 46 24" fill="none" xmlns="http://www.w3.org/2000/svg">
<path d="M44.2031 10.3125H6.14912L12.4529 4.03924C13.1563 3.33918 13.159 2.20149 12.4589 1.4981C11.7589 0.794627 10.6211 0.792022 9.9177 1.49199L0.528674 10.8357C0.528045 10.8363 0.527596 10.8369 0.527057 10.8374C-0.174532 11.5375 -0.176778 12.6789 0.526877 13.3813C0.527506 13.3818 0.527956 13.3824 0.528495 13.383L9.91752 22.7267C10.6208 23.4266 11.7586 23.4242 12.4587 22.7206C13.1588 22.0172 13.1561 20.8795 12.4527 20.1795L6.14912 13.9062H44.2031C45.1955 13.9062 46 13.1018 46 12.1094C46 11.1169 45.1955 10.3125 44.2031 10.3125Z" fill="black" fill-opacity="0.5"/>
</svg>
