<svg width="34" height="34" viewBox="0 0 34 34" fill="none" xmlns="http://www.w3.org/2000/svg">
<path d="M8.10654 26.1596L5.46669 28.7995C2.40111 25.8029 0.501099 21.625 0.501099 17H4.22662C4.22662 20.5925 5.71147 23.8444 8.10654 26.1596Z" fill="#EE3A20"/>
<path d="M26.0478 26.0478L28.6663 28.6664C25.6806 31.6521 21.5558 33.499 17 33.499V29.7734C20.5233 29.7734 23.7167 28.3418 26.0319 26.0319L26.0478 26.0478Z" fill="#EE3A20"/>
<path d="M33.4989 17H29.7734C29.7734 13.5459 28.3949 10.4111 26.1596 8.10655L28.7995 5.46671C31.7053 8.44184 33.4989 12.5133 33.4989 17Z" fill="#EE3A20"/>
<path d="M17 0.501099V4.22662C13.4767 4.22662 10.2833 5.65828 7.96815 7.96815L5.33362 5.33368C8.31944 2.34786 12.4441 0.501099 17 0.501099Z" fill="#EE3A20"/>
<path d="M17 29.7734V33.4989C12.5133 33.4989 8.44184 31.7053 5.46671 28.7994L8.10655 26.1595C10.4111 28.3948 13.5458 29.7734 17 29.7734Z" fill="black"/>
<path d="M29.7734 17H33.4989C33.4989 21.5558 31.6521 25.6806 28.6663 28.6663L26.0478 26.0477L26.0319 26.0318C28.3417 23.7167 29.7734 20.5233 29.7734 17Z" fill="black"/>
<path d="M28.7994 5.46669L26.1595 8.10654C23.8444 5.71147 20.5925 4.22662 17 4.22662V0.501099C21.625 0.501099 25.8029 2.40111 28.7994 5.46669Z" fill="black"/>
<path d="M5.33361 5.33368L7.96808 7.96821C5.65828 10.2834 4.22656 13.4767 4.22656 17.0001H0.501099C0.501099 12.4442 2.34786 8.31944 5.33361 5.33368Z" fill="black"/>
<path d="M26.1596 8.10654C28.3949 10.4111 29.7733 13.5459 29.7733 17C29.7733 20.5233 28.3417 23.7167 26.0318 26.0318C23.7166 28.3417 20.5233 29.7734 16.9999 29.7734C13.5458 29.7734 10.411 28.3949 8.10648 26.1596C5.71141 23.8444 4.22656 20.5925 4.22656 17C4.22656 13.4767 5.65821 10.2833 7.96809 7.96815C10.2833 5.65834 13.4766 4.22662 16.9999 4.22662C20.5925 4.22662 23.8444 5.71153 26.1596 8.10654Z" fill="white"/>
<path d="M31.7355 8.51707C30.2985 6.0261 28.2373 3.92355 25.7747 2.43671L25.2567 3.29461C26.2955 3.92182 27.2444 4.6503 28.0946 5.46298L26.1582 7.39932C23.8872 5.23202 20.8507 3.86099 17.5011 3.73595V1.01037C19.7272 1.07777 21.8687 1.59441 23.8737 2.5498L24.3048 1.64515C22.0141 0.553496 19.5564 0 17 0C12.4591 0 8.19002 1.76827 4.97921 4.97921C1.7684 8.19015 0 12.4591 0 17C0 21.5409 1.76827 25.81 4.97921 29.0208C8.19008 32.2317 12.4591 34 17 34C21.5409 34 25.81 32.2317 29.0208 29.0208C32.2317 25.8099 34 21.5409 34 17C34 14.0184 33.2169 11.0851 31.7355 8.51707ZM7.97951 7.27095L6.05366 5.34497C8.80401 2.76031 12.4656 1.13548 16.499 1.01077V3.73595C13.2162 3.85847 10.235 5.17829 7.97951 7.27095ZM7.27095 7.97951C5.17829 10.235 3.85847 13.2162 3.73602 16.4989H1.01077C1.13548 12.4655 2.76031 8.80387 5.34497 6.05353L7.27095 7.97951ZM3.73588 17.5011C3.86086 20.8507 5.23188 23.8872 7.39925 26.1582L5.47446 28.083C2.81463 25.3179 1.13761 21.6015 1.01077 17.5011H3.73588ZM8.11823 26.8565C10.3565 28.8754 13.2833 30.1441 16.499 30.264V32.9892C12.5327 32.8665 8.92573 31.2934 6.19145 28.7833L8.11823 26.8565ZM17.5011 30.2641C20.7838 30.1416 23.7651 28.8218 26.0205 26.7291L27.9464 28.655C25.1961 31.2397 21.5344 32.8645 17.501 32.9892V30.2641H17.5011ZM26.729 26.0204C28.8217 23.765 30.1415 20.7837 30.264 17.5011H32.9892C32.8645 21.5344 31.2396 25.1961 28.655 27.9464L26.729 26.0204ZM32.99 16.4989H30.2641C30.1441 13.2832 28.8754 10.3565 26.8565 8.11816L28.7969 6.17777C31.3684 8.96504 32.8714 12.5915 32.99 16.4989ZM29.2723 17C29.2723 23.767 23.7669 29.2723 17 29.2723C10.2331 29.2723 4.72773 23.767 4.72773 17C4.72773 10.233 10.233 4.72773 17 4.72773C23.767 4.72773 29.2723 10.2331 29.2723 17Z" fill="#231F20"/>
<g clip-path="url(#clip0)">
<path d="M16.2895 22.8125C16.2895 22.412 16.6142 22.0873 17.0147 22.0873C17.4151 22.0873 17.7398 22.412 17.7398 22.8125C17.7398 23.213 17.4151 23.5376 17.0147 23.5376C16.6142 23.5376 16.2895 23.213 16.2895 22.8125Z" fill="#EE3A20" stroke="black" stroke-width="5"/>
<path d="M17.7027 14.8691L17.7033 14.8698L17.7027 14.8691ZM17.7027 14.8691C17.8235 14.7665 17.9183 14.6403 17.9826 14.5002C18.0458 14.3626 18.0796 14.2116 18.0796 14.0565C18.0796 13.4693 17.6019 12.9916 17.0147 12.9916C16.7513 12.9916 16.51 13.0877 16.3239 13.2467C16.3238 13.2468 16.3236 13.2469 16.3235 13.2469C16.0949 13.4424 15.9497 13.7328 15.9497 14.0565L17.0147 15.4541L17.7027 14.8691Z" fill="#EE3A20" stroke="black" stroke-width="5"/>
</g>
<defs>
<clipPath id="clip0">
<rect width="15.1455" height="15.1455" fill="white" transform="translate(9.44193 9.44189)"/>
</clipPath>
</defs>
</svg>
