<svg width="92" height="93" viewBox="0 0 92 93" fill="none" xmlns="http://www.w3.org/2000/svg">
<g clip-path="url(#clip0)">
<path d="M91.9865 74.228L90.2226 69.9607C90.2073 69.924 90.1813 69.8931 90.148 69.8721C90.1147 69.8511 90.0758 69.8411 90.0367 69.8434C89.9976 69.8457 89.9601 69.8603 89.9294 69.8851C89.8988 69.9099 89.8765 69.9437 89.8656 69.9819L89.3175 71.9459L85.7493 69.5139C85.8986 69.2474 86.0824 68.9188 86.2138 68.6235C86.367 68.3323 86.423 67.9987 86.3736 67.6725C86.8829 67.1137 87.4833 66.4369 88.1749 65.6237C90.7139 62.6465 91.1053 58.0597 90.006 54.5949C88.9067 51.1302 84.429 42.4956 84.4797 41.8747C84.5305 41.2538 85.4804 42.3987 86.5543 41.4946C87.6282 40.5906 86.9501 39.0339 85.4446 39.0641C83.9391 39.0944 82.1587 39.7592 82.211 41.2871C82.2244 41.6597 82.3604 42.1821 82.5874 42.8196L82.668 43.0422L64.1088 52.2311C63.5428 51.2014 62.9423 49.9884 62.206 49.0147C62.0755 48.6948 61.9165 48.3876 61.731 48.097C61.731 48.097 67.1438 47.8229 67.8741 43.1422C72.2055 40.4164 72.4579 38.7885 72.4579 38.7885C72.4579 38.7885 73.9276 38.5054 73.6259 36.0885C73.7962 35.6993 74.3876 35.0512 73.4646 33.9564C73.8335 33.2583 73.9127 32.2104 72.6446 31.0095C72.6013 30.5794 72.3967 30.1963 71.7485 29.6815C71.6081 29.2272 71.2302 28.4534 69.8979 28.517C69.6634 27.7371 68.7031 27.0693 67.4081 27.0284C66.984 26.7361 65.7861 24.7781 63.5144 25.3975C63.0932 25.2203 61.3039 23.4395 59.2771 25.8911C58.6871 25.7957 57.08 25.7094 56.1241 28.0914C55.5715 28.1883 53.4357 28.5624 52.8846 31.0035C52.32 31.0837 50.1961 32.0635 51.3686 34.4546C51.1565 35.2299 50.9429 36.0915 52.3768 37.518C51.9033 38.4872 52.0482 40.3452 53.2221 40.5209C52.9144 41.2008 52.2453 41.9716 51.6763 42.5622C50.332 41.5476 48.1783 39.3276 49.1043 35.984C50.4142 31.2533 53.5328 30.8581 51.5508 27.2616C49.5688 23.6651 44.5967 19.0389 40.216 11.7702C35.8354 4.50147 35.6278 0.424942 34.8123 0.0372784C33.9968 -0.350386 32.6959 2.28603 32.7541 4.01689C32.8124 5.74775 34.7615 9.95148 34.5464 10.1953C34.3313 10.4391 32.8139 8.57497 32.3717 7.16666C31.9297 5.75835 31.7116 4.64987 30.8931 4.4197C30.0746 4.18952 29.9193 6.72448 30.3584 8.28725C30.7975 9.85002 31.8087 11.487 31.5996 11.5748C31.3905 11.6627 30.4047 10.2316 30.0059 9.57139C29.6071 8.91115 28.941 8.27514 28.4182 8.57497C27.8955 8.87481 28.4182 10.7662 29.065 11.7732C29.7117 12.7802 30.9529 14.3066 30.7303 14.4187C30.5078 14.5308 28.7633 12.4289 28.0643 12.7196C27.3653 13.0104 27.7267 14.6413 28.7319 15.6801C29.7371 16.7189 31.6862 18.4437 31.498 18.7088C31.3098 18.9738 29.6385 17.6987 28.8783 17.2202C28.118 16.7417 27.5146 17.9334 28.6707 19.5371C29.8267 21.1407 32.0043 22.54 31.9028 22.758C31.8012 22.9761 30.2001 22.5051 29.4757 22.6778C28.7513 22.8504 28.5796 23.5864 28.3749 23.6197C28.1703 23.653 24.2332 22.9019 19.9317 20.0141C15.6302 17.1263 13.3346 15.4454 12.537 16.0511C11.7394 16.6569 12.5251 18.8042 15.0761 20.2503C17.6271 21.6965 20.1543 22.5218 20.1468 22.7414C20.1393 22.9609 19.2208 22.7868 18.0558 22.5248C16.8908 22.2628 15.9648 22.9655 16.038 23.5485C16.1112 24.1315 16.8893 24.9916 18.5054 25.2854C20.1214 25.5792 20.8473 25.9078 20.8458 26.0638C20.8443 26.2197 17.9049 25.9123 18.0199 27.3964C18.135 28.8804 19.4045 29.0803 20.3544 29.2999C21.3043 29.5194 22.5589 29.4907 22.6097 29.7117C22.6605 29.9328 21.1281 30.166 21.1072 31.058C21.0863 31.9499 21.3342 33.2719 23.6955 34.0639C26.0569 34.8559 27.0173 34.7059 27.0173 34.7059C27.0173 34.7059 25.9195 35.4389 26.9142 36.2929C27.9089 37.147 29.8073 36.9274 29.8073 36.9274C29.8073 36.9274 27.4952 37.4211 28.5407 38.5478C29.5862 39.6744 31.1261 39.9773 31.1261 39.9773C31.1261 39.9773 29.2995 41.2463 30.2539 42.0655C31.2083 42.8848 31.8146 43.0528 31.8146 43.0528C31.8146 43.0528 30.5899 43.5389 29.9761 44.1886C29.3622 44.8382 29.1919 46.0815 30.5033 46.6206C31.8146 47.1597 32.7332 47.1733 32.7332 47.1733C32.7332 47.1733 32.0835 48.2333 32.0536 48.6876C32.0238 49.1419 32.0252 49.7991 32.8258 49.9566C33.6264 50.1141 35.1543 49.6916 35.1543 49.6916C35.1543 49.6916 34.5793 50.4306 34.9392 50.903C35.2992 51.3755 35.9534 51.3195 36.6718 51.2059C37.3902 51.0923 38.7822 50.9924 38.7822 50.9924C38.7822 50.9924 37.665 52.1115 38.2326 52.4991C38.7508 52.852 39.4692 52.8762 40.921 52.1963C41.5184 52.6778 42.8059 52.3477 44.3084 51.5905C43.8225 52.6581 43.0824 53.5865 42.1547 54.2921C39.2661 56.4121 33.1753 57.2692 30.6541 59.6891C28.133 62.1089 27.6968 65.3496 27.6968 65.3496C27.6968 65.3496 24.1123 66.9881 20.6606 72.117C21.2252 66.4626 12.6804 63.3583 12.9955 61.5365C13.3107 59.7148 14.0978 57.8022 12.1188 56.9724C10.1398 56.1426 9.34673 57.3994 8.35052 56.7861C7.3543 56.1728 6.2595 54.4496 4.93769 54.2587C3.61587 54.0679 1.10367 52.9731 0.252328 54.2587C-0.599012 55.5444 0.999118 55.8881 0.999118 55.8881C1.19302 56.355 1.32947 56.8443 1.40537 57.3449C1.51142 58.1172 2.26119 58.7759 2.93032 59.1197C3.59944 59.4634 4.84359 59.6664 5.26329 60.0283C5.68298 60.3902 6.44172 61.7667 7.02123 62.2377C7.60074 62.7086 8.69404 63.6248 8.99425 64.3092C9.29446 64.9937 11.1241 70.3801 12.1935 73.5587C13.2629 76.7372 13.5631 80.9955 16.8236 81.9056C20.0841 82.8157 27.0412 81.0379 29.8371 79.9006C32.6331 78.7634 37.5814 75.02 37.5814 75.02C38.4815 75.4367 39.4241 75.7515 40.3923 75.9588C41.7693 76.2132 44.4249 76.4843 44.4249 76.4843C44.4249 76.4843 35.7831 80.9258 35.2349 80.7516C33.4934 80.1989 31.7206 79.1692 30.6586 81.0545C29.5967 82.9398 30.7258 83.9029 30.0059 84.8282C29.286 85.7534 27.4534 86.6453 27.1009 87.9416C26.7484 89.2379 25.3579 91.6335 26.5109 92.6541C27.664 93.6748 28.1987 92.115 28.1987 92.115C28.6808 91.98 29.1773 91.9053 29.6773 91.8924C30.445 91.8834 31.1844 91.2125 31.6055 90.5826C32.0267 89.9526 32.3822 88.7275 32.8004 88.352C33.2186 87.9764 34.636 87.3783 35.1692 86.8528C35.7024 86.3273 36.7375 85.3461 37.4454 85.131C37.8726 85.0023 46.0753 83.5864 47.4733 83.5213C50.3276 83.3866 53.5178 82.8762 55.5566 80.9137C56.2093 81.3392 57.0875 81.1575 57.4624 80.2822C57.8522 79.3736 57.3056 78.8088 57.1413 78.4726C57.1786 78.3666 57.2145 78.2621 57.2458 78.1561C57.8597 77.9335 67.2528 79.8703 70.8374 79.9733C74.422 80.0763 78.6608 78.4105 80.7697 75.1063C81.2656 74.331 81.6868 73.648 82.0407 73.0574C82.5859 73.4269 83.1535 73.6344 83.5597 73.3875C84.4962 72.8212 84.2124 72.3048 84.2124 72.3048C84.2124 72.3048 85.1085 72.2518 85.5835 71.5477C85.8718 71.1131 85.7538 70.6391 85.6193 70.3362L88.8365 72.535L87.1936 73.5587C87.1732 73.5705 87.1554 73.5865 87.1413 73.6056C87.1253 73.6269 87.114 73.6515 87.1081 73.6776C87.1022 73.7037 87.1018 73.7308 87.1069 73.757C87.1152 73.796 87.1351 73.8315 87.164 73.8586C87.1929 73.8857 87.2293 73.9031 87.2683 73.9085L91.7908 74.4915C91.8238 74.4957 91.8573 74.4911 91.888 74.4781C91.9187 74.4651 91.9454 74.4441 91.9656 74.4173C91.9847 74.3902 91.9967 74.3585 92.0003 74.3254C92.004 74.2923 91.9992 74.2587 91.9865 74.228ZM82.8263 43.4602L82.8428 43.5056C83.5896 45.4742 84.8143 48.2484 85.5521 51.2135C86.6499 55.6262 86.5976 60.7627 84.0227 62.96C83.2759 63.5975 82.6188 64.1048 82.0587 64.5091C81.0953 64.5742 80.0871 64.5409 79.5435 64.2623C78.8743 63.9185 75.0702 60.5613 72.2458 59.253C69.4215 57.9446 66.6016 55.0522 65.4396 54.1043C65.0602 53.8014 64.7003 53.2593 64.3314 52.6157L82.8263 43.4602ZM57.6043 76.0497H57.4475C57.2369 74.0236 55.8478 72.0292 53.243 70.368C49.1222 67.7392 50.3873 67.9905 50.3873 67.9905C50.3873 67.9905 52.5276 67.2061 54.8068 63.4309C57.086 59.6558 57.4236 57.719 58.3272 57.8704C58.7394 57.94 59.5086 58.4958 60.3405 59.1091L58.4243 76.1103L58.3317 76.1027L57.6043 76.0497ZM77.0865 71.8096C75.7259 74.9367 70.8747 76.4177 66.3895 76.5827C63.6264 76.6842 60.9006 76.342 58.8693 76.1497L60.7572 59.4074C61.6235 60.0449 62.5047 60.6688 63.0827 60.8203C64.3209 61.1428 65.7353 61.7379 66.6942 62.486C67.6531 63.2341 70.4924 65.2315 73.841 66.4232C76.5294 67.3772 77.6078 68.148 78.2396 68.7462C77.9124 69.789 77.5274 70.8123 77.0865 71.8111V71.8096Z" fill="#EE3A20"/>
</g>
<defs>
<clipPath id="clip0">
<rect width="92" height="93" fill="white"/>
</clipPath>
</defs>
</svg>
