<svg width="103" height="103" viewBox="0 0 103 103" fill="none" xmlns="http://www.w3.org/2000/svg">
<g clip-path="url(#clip0)">
<path d="M25.3675 58.244C28.1887 56.4523 30.0628 53.3071 30.0628 49.718C30.0628 44.1345 25.5365 39.6095 19.9543 39.6095C14.3709 39.6095 9.84454 44.1345 9.84454 49.718C9.84454 53.3071 11.7215 56.4523 14.5398 58.244C6.15194 60.603 0 68.305 0 77.4473C0 88.4678 39.9061 88.4678 39.9061 77.4473C39.9061 68.305 33.7554 60.6042 25.3675 58.244Z" fill="#10532F"/>
<path d="M102.159 56.7804L82.862 37.4837V24.7569C82.862 23.1719 81.5772 21.8842 79.9878 21.8842C78.4012 21.8842 77.1163 23.1719 77.1163 24.7569V31.7397L63.5024 18.1287C62.3824 17.0071 60.5639 17.0071 59.4454 18.1287L40.1112 37.4629C41.762 38.502 43.0915 39.9921 43.9309 41.7643L61.4762 24.2177L98.1031 60.843C98.6603 61.4018 99.3977 61.6852 100.131 61.6852C100.863 61.6852 101.602 61.4059 102.16 60.843C103.28 59.7176 103.28 57.9004 102.159 56.7804Z" fill="#10532F"/>
<path d="M93.9468 60.0751L63.5083 29.6366C62.9678 29.0961 62.2401 28.7931 61.4791 28.7931C60.718 28.7931 59.989 29.0961 59.4498 29.6366L44.7536 44.3315C44.8584 44.9154 44.9226 45.5157 44.9226 46.1289C44.9226 47.443 44.674 48.7194 44.2075 49.8983C48.3289 52.8953 50.9279 57.7569 50.9279 63.0513C50.9279 64.8974 50.097 69.0692 43.1041 71.0817C43.6682 73.1249 43.9728 75.2604 43.9728 77.4489C43.9728 80.4767 42.5385 82.8495 40.2201 84.6777H49.8844C51.8076 84.6777 53.6635 83.8648 54.9764 82.443C56.1691 81.1553 56.8254 79.4838 56.8254 77.7352V66.825C56.8254 64.1772 58.8546 61.9662 61.476 61.7163C64.0973 61.9664 66.1266 64.1785 66.1266 66.825V77.7352C66.1266 79.4838 66.7844 81.1553 67.9743 82.443C69.2843 83.8648 71.1403 84.6777 73.0663 84.6777H87.9245C91.7483 84.6777 94.8642 81.5646 94.8642 77.7352V62.8769C94.8642 62.4425 94.8237 62.0013 94.7358 61.5628C94.627 60.9969 94.3533 60.4815 93.9468 60.0751Z" fill="#10532F"/>
<path d="M29.2515 57.5276C33.803 59.6547 37.4339 63.2885 39.6296 67.699C43.684 67.023 46.861 65.4757 46.861 63.0512C46.861 57.4732 43.107 52.7738 37.9886 51.3325C39.7092 50.2361 40.8556 48.3186 40.8556 46.1276C40.8556 42.7212 38.0918 39.9602 34.687 39.9602C32.6354 39.9602 30.8242 40.9644 29.7026 42.502C31.2011 44.5227 32.099 47.0129 32.099 49.7139C32.0978 52.6256 31.0712 55.37 29.2515 57.5276Z" fill="#10532F"/>
</g>
<defs>
<clipPath id="clip0">
<rect width="103" height="103" fill="white"/>
</clipPath>
</defs>
</svg>
