<svg width="103" height="69" viewBox="0 0 103 69" fill="none" xmlns="http://www.w3.org/2000/svg">
<path d="M25.3675 41.244C28.1887 39.4523 30.0628 36.3071 30.0628 32.718C30.0628 27.1345 25.5365 22.6095 19.9543 22.6095C14.3709 22.6095 9.84454 27.1345 9.84454 32.718C9.84454 36.3071 11.7215 39.4523 14.5398 41.244C6.15194 43.603 0 51.305 0 60.4473C0 71.4678 39.9061 71.4678 39.9061 60.4473C39.9061 51.305 33.7554 43.6042 25.3675 41.244Z" fill="#10532F"/>
<path d="M102.159 39.7804L82.862 20.4837V7.7569C82.862 6.17186 81.5772 4.88416 79.9878 4.88416C78.4012 4.88416 77.1163 6.17186 77.1163 7.7569V14.7397L63.5024 1.12865C62.3824 0.00708333 60.5639 0.00708333 59.4454 1.12865L40.1112 20.4629C41.762 21.502 43.0915 22.9921 43.9309 24.7643L61.4762 7.21769L98.1031 43.843C98.6603 44.4018 99.3977 44.6852 100.131 44.6852C100.863 44.6852 101.602 44.4059 102.16 43.843C103.28 42.7176 103.28 40.9004 102.159 39.7804Z" fill="#10532F"/>
<path d="M93.9468 43.0751L63.5083 12.6366C62.9678 12.0961 62.2401 11.7931 61.4791 11.7931C60.718 11.7931 59.989 12.0961 59.4498 12.6366L44.7536 27.3315C44.8584 27.9154 44.9226 28.5157 44.9226 29.1289C44.9226 30.443 44.674 31.7194 44.2075 32.8983C48.3289 35.8953 50.9279 40.7569 50.9279 46.0513C50.9279 47.8974 50.097 52.0692 43.1041 54.0817C43.6682 56.1249 43.9728 58.2604 43.9728 60.4489C43.9728 63.4767 42.5385 65.8495 40.2201 67.6777H49.8844C51.8076 67.6777 53.6635 66.8648 54.9764 65.443C56.1691 64.1553 56.8254 62.4838 56.8254 60.7352V49.825C56.8254 47.1772 58.8546 44.9662 61.476 44.7163C64.0973 44.9664 66.1266 47.1785 66.1266 49.825V60.7352C66.1266 62.4838 66.7844 64.1553 67.9743 65.443C69.2843 66.8648 71.1403 67.6777 73.0663 67.6777H87.9245C91.7483 67.6777 94.8642 64.5646 94.8642 60.7352V45.8769C94.8642 45.4425 94.8237 45.0013 94.7358 44.5628C94.627 43.9969 94.3533 43.4815 93.9468 43.0751Z" fill="#10532F"/>
<path d="M29.2515 40.5276C33.803 42.6547 37.4339 46.2885 39.6296 50.699C43.684 50.023 46.861 48.4757 46.861 46.0512C46.861 40.4732 43.107 35.7738 37.9886 34.3325C39.7092 33.2361 40.8556 31.3186 40.8556 29.1276C40.8556 25.7212 38.0918 22.9602 34.687 22.9602C32.6354 22.9602 30.8242 23.9644 29.7026 25.502C31.2011 27.5227 32.099 30.0129 32.099 32.7139C32.0978 35.6256 31.0712 38.37 29.2515 40.5276Z" fill="#10532F"/>
</svg>
