<svg width="124" height="124" viewBox="0 0 124 124" fill="none" xmlns="http://www.w3.org/2000/svg">
<g clip-path="url(#clip0)">
<path d="M110.338 60.9704C113.14 59.9773 115.857 59.0234 118.58 58.5927L118.629 58.5664C120.461 58.2768 121.715 56.5568 121.431 54.7243C121.146 52.8918 119.429 51.641 117.597 51.9306L117.36 51.9862C114.507 52.5597 111.657 53.3666 108.853 54.3359C110.073 56.947 110.338 60.9704 110.338 60.9704Z" fill="#000000"/>
<path d="M108.495 73.3152C110.136 69.6058 110.769 65.3341 110.338 60.9705C110.338 60.9705 110.073 56.947 108.853 54.336C107.438 50.3909 105.154 46.9307 102.232 44.3643C97.8275 40.496 92.2803 38.8325 86.1897 39.5574C80.336 40.2526 75.3147 42.9688 70.8376 47.8611C68.4652 50.4529 66.4174 53.4606 64.513 56.576C67.2577 58.1723 70.5405 59.5941 70.5405 59.5941C74.7898 52.73 79.4881 47.1192 86.9762 46.2297C91.1809 45.7318 94.8212 46.802 97.796 49.4149C99.8813 51.2463 101.521 53.762 102.55 56.6643C102.549 56.6649 102.547 56.6651 102.546 56.6657C102.732 57.2497 103.684 60.3742 103.74 63.3973C103.789 69.3725 101.196 75.4707 94.6686 77.4636C85.8492 80.1559 78.3931 77.1066 68.9528 73.2465C67.2751 72.5602 65.5461 71.8532 63.7475 71.1522C64.9063 69.2724 66.0093 67.3504 67.0995 65.4498C73.5 68.158 79.4407 68.8143 85.0186 68.3479C91.7351 67.7867 97.9236 65.5963 103.74 63.3973C103.684 60.3742 102.733 57.2501 102.546 56.6657C92.2176 60.5937 82.351 64.2409 70.541 59.5946C70.541 59.5946 67.2582 58.1727 64.513 56.576C60.3936 54.1144 57.112 51.8544 54.2048 49.8531C46.1545 44.3098 40.8356 40.6478 31.1583 42.5419C25.2332 43.7013 19.6673 48.5163 16.631 55.1077C15.2982 58.0017 14.5274 60.9934 14.3152 63.9542L21.0859 63.7367C21.302 61.794 21.8504 59.8294 22.7323 57.9144C24.88 53.2516 28.6004 49.8879 32.4421 49.1364C39.3478 47.7852 42.8088 50.1682 50.3914 55.3888C53.3966 57.4579 56.7905 59.7946 61.1187 62.378C61.1156 62.3841 61.1119 62.3897 61.1087 62.3958C64.3534 64.3699 67.182 65.4758 67.182 65.4758C67.182 65.4758 64.3534 64.3699 61.1087 62.3958C59.8356 64.6154 58.5873 66.7808 57.2921 68.8128C56.2806 70.7379 53.0974 74.5189 53.0974 74.5189C53.0974 74.5189 56.2806 70.7379 57.2921 68.8128C52.9373 67.3763 48.1492 66.1158 42.7385 65.3166C35.3332 64.2233 28.1328 63.6953 21.0859 63.7367L14.3152 63.9542C13.6007 64.0725 8.80877 64.104 4.25079 64.8905L4.26425 64.9091C2.43225 65.1987 1.17805 66.9188 1.46344 68.7517C1.74829 70.5842 3.4646 71.8345 5.29712 71.5453L4.98533 71.5898C10.2766 70.8424 14.0693 70.7808 14.8098 70.6602C14.806 70.6606 14.8008 70.6607 14.8008 70.6607C14.8008 70.6607 14.806 70.6606 14.8098 70.6602L14.8145 70.6597C15.0891 70.6464 19.5697 70.4192 21.7503 70.4545C19.5697 70.4192 15.0891 70.6464 14.8145 70.6597C15.2868 72.7389 16.0582 74.7488 17.1275 76.6383C22.1094 85.4403 28.9845 88.1257 33.8744 88.8285C41.5405 89.931 50.0588 86.9778 56.1056 81.1242C57.4553 79.8174 58.6996 78.3825 59.8655 76.8629C59.8684 76.8635 59.871 76.8647 59.8735 76.8659C60.0169 76.6719 62.8673 72.8063 63.748 71.1569C62.8673 72.8063 60.0169 76.6719 59.8735 76.8659C62.1544 77.7279 64.3215 78.6146 66.4056 79.4663C74.6284 82.8291 81.9525 85.8238 90.2596 85.1294C92.3114 84.9575 94.4242 84.5613 96.6243 83.8898C102.063 82.2293 106.168 78.5727 108.495 73.3152ZM51.4355 76.2976C46.9197 80.6697 40.4038 82.9774 34.8358 82.1775C29.8881 81.466 25.897 78.4869 22.9745 73.3234C22.4563 72.4074 22.0386 71.4482 21.7224 70.4571C28.2396 70.4492 34.9026 70.9529 41.7514 71.9642C45.857 72.5704 49.6142 73.4805 53.0996 74.5397C52.5627 75.1556 52.009 75.7432 51.4355 76.2976Z" fill="#000000"/>
<path d="M121.431 54.7243C121.146 52.8918 119.429 51.641 117.597 51.9306L117.36 51.9862C117.2 52.0181 117.041 52.0534 116.882 52.0872C116.937 55.0623 113.837 55.5215 109.685 56.7232C110.122 58.4391 110.338 60.9704 110.338 60.9704C113.14 59.9773 115.857 59.0235 118.58 58.5927L118.629 58.567C120.461 58.2768 121.715 56.5568 121.431 54.7243Z" fill="#000000"/>
<path d="M67.0989 65.4494C73.4999 68.158 79.4406 68.8143 85.0185 68.3479C89.7172 67.9549 97.5958 66.0823 103.744 63.5325C103.859 62.261 103.453 59.6603 103.453 59.6603C97.6374 61.8588 89.3567 65.5829 80.2333 65.053C74.6457 64.7278 62.8523 61.5064 49.6588 54.7399C56.9656 60.6281 63.5912 63.6936 67.0989 65.4494Z" fill="#000000"/>
<path d="M21.7224 70.4571C28.2396 70.4493 34.9063 70.9301 41.7514 71.9642C45.1436 72.4767 51.5209 74.178 53.0974 74.5189C53.1772 74.4445 53.258 74.3699 53.3367 74.2936C53.9097 73.7388 54.7561 72.6308 55.2934 72.0153C51.8076 70.9557 41.3068 68.9036 37.2017 68.2978C30.3529 67.2865 27.3737 66.7689 20.8564 66.7767C20.9903 68.0219 21.2358 69.1285 21.7224 70.4571Z" fill="#000000"/>
<path d="M14.0545 66.7525C14.054 66.7521 9.95943 67.3188 9.95943 67.3188C9.95849 67.3189 14.0555 66.7524 14.0545 66.7525C13.3619 66.8652 1.44791 68.6115 1.46293 68.7513C1.66114 70.595 3.46462 71.8345 5.29661 71.5449L4.98535 71.5898C7.60047 71.2208 13.2852 70.8069 14.9803 70.6829C14.433 69.1045 14.2991 67.8593 14.0545 66.7525Z" fill="#000000"/>
</g>
<defs>
<clipPath id="clip0">
<rect width="88" height="88" fill="white" transform="translate(55.3488 0.131104) rotate(38.8639)"/>
</clipPath>
</defs>
</svg>
