<svg width="337" height="337" viewBox="0 0 337 337" fill="none" xmlns="http://www.w3.org/2000/svg">
<path d="M293.883 234.639H42.5084C54.0269 234.639 60.5395 228.612 64.2368 218.624C82.1188 170.387 34.4865 29.817 168.199 29.817C301.91 29.817 254.27 170.387 272.154 218.624C275.857 228.612 282.372 234.639 293.883 234.639V234.639Z" fill="#F7D360"/>
<path d="M318.221 258.974C318.221 272.416 307.322 283.312 293.883 283.312H42.5084C35.7875 283.312 29.7017 280.589 25.2974 276.185C20.8931 271.781 18.1703 265.695 18.1703 258.974C18.1703 245.535 29.0666 234.639 42.5084 234.639H293.883C300.604 234.639 306.69 237.361 311.094 241.766C315.498 246.17 318.221 252.256 318.221 258.974V258.974Z" fill="#F7D360"/>
<path d="M318.221 258.974C318.221 272.416 307.322 283.312 293.883 283.312H112.836C106.117 283.312 100.032 280.589 95.6273 276.185C91.223 271.781 88.5002 265.695 88.5002 258.974C88.5002 245.535 99.3965 234.639 112.836 234.639H293.883C300.604 234.639 306.689 237.361 311.094 241.766C315.498 246.17 318.221 252.256 318.221 258.974V258.974Z" fill="#F7D360"/>
<path d="M216.873 283.312C216.873 305.694 201.77 324.54 181.212 330.232C177.067 331.379 172.704 331.993 168.199 331.993C141.311 331.993 119.518 310.198 119.518 283.312H216.873Z" fill="#F7D360"/>
<path d="M214.518 298.327C209.507 313.795 196.96 325.874 181.212 330.232C171.31 327.494 162.676 321.706 156.382 313.944C151.31 307.686 155.886 298.327 163.941 298.327H214.518Z" fill="#F7D360"/>
<path d="M192.936 31.6786C192.99 31.0641 193.01 30.4445 193.01 29.8172C193.01 16.1157 181.898 5.00598 168.199 5.00598C154.49 5.00598 143.388 16.1157 143.388 29.8172C143.388 30.4445 143.406 31.0641 143.46 31.6786" fill="#F7D360"/>
</svg>
