<svg width="135" height="64" viewBox="0 0 135 64" fill="none" xmlns="http://www.w3.org/2000/svg">
<path d="M24.5576 35.2019L13.6431 34.6562H5.73C2.71601 34.6562 0 32.2128 0 29.1985C0 26.1842 2.44312 23.7408 5.45712 23.7408H15.8259L27.0132 24.2866C36.8389 26.1425 47.0475 30.8565 56.5419 35.4456C57.658 35.9851 58.6341 36.3017 59.7565 36.8392C58.2185 40.1201 56.2439 43.2236 53.7536 46.1173C53.7536 46.1173 52.4675 45.5993 51.7927 45.2732C42.2568 40.6645 33.1378 36.6149 24.5576 35.2019V35.2019Z" fill="#9F7849"/>
<path d="M128.802 28.9256H120.616C120.616 22.064 118.162 15.1439 113.882 9.93922C110.155 5.405 103.279 0 91.6925 0C82.3356 0 75.137 5.74255 70.1252 12.2797C61.1616 8.40371 52.0803 5.45766 42.5777 5.45766C31.1368 5.45766 24.2599 10.8526 20.5053 15.3783C18.5135 17.7794 16.9793 20.8071 15.8259 23.7408L27.0132 24.2866C29.7385 19.9049 35.0071 16.373 42.5777 16.373C49.6729 16.373 57.0173 18.7506 64.3952 21.8306C60.2875 29.0312 62.3527 31.9756 59.7565 36.8392C58.2185 40.1201 56.2439 43.2236 53.7536 46.1172C50.6883 49.5796 46.9665 52.3935 42.5777 52.3935C28.6847 52.3935 24.7429 41.5347 24.5576 35.2019L13.6431 34.6561C13.6431 41.5178 16.1086 48.165 20.3876 53.3696C24.1155 57.9039 30.9913 63.3089 42.5777 63.3089C51.9346 63.3089 59.1106 57.5663 64.1223 51.0291C73.086 54.9052 82.1899 57.8512 91.6925 57.8512C103.133 57.8512 110.01 52.4563 113.765 47.9305C115.757 45.5294 117.354 42.7747 118.508 39.8409H128.802C131.816 39.8409 134.259 37.3975 134.259 34.3833C134.259 31.369 131.816 28.9256 128.802 28.9256V28.9256ZM91.6925 46.9359C84.5973 46.9359 77.2303 44.5583 69.8523 41.4782C72.8538 35.4748 71.8951 31.8793 74.4911 26.4697C75.6137 27.0075 96.969 37.162 106.795 39.0179C104.069 43.3996 99.2631 46.9359 91.6925 46.9359V46.9359ZM80.494 17.1916C83.5592 13.7293 87.3037 10.9153 91.6925 10.9153C105.586 10.9153 109.508 22.1202 109.694 28.453C101.114 27.04 81.1712 17.518 80.494 17.1916Z" fill="#9F7849"/>
</svg>
