<svg width="185" height="184" viewBox="0 0 185 184" fill="none" xmlns="http://www.w3.org/2000/svg">
<g clip-path="url(#clip0)">
<path d="M44.4364 141.3L30.1774 155.559C13.6189 139.373 3.35602 116.806 3.35602 91.8246H23.4793C23.4793 111.229 31.4996 128.794 44.4364 141.3Z" fill="#2035EE"/>
<path d="M141.345 140.696L155.489 154.84C139.362 170.968 117.082 180.943 92.4741 180.943L92.4741 160.82C111.505 160.82 128.754 153.087 141.259 140.61L141.345 140.696Z" fill="#2035EE"/>
<path d="M181.592 91.8247H161.469C161.469 73.1674 154.023 56.2351 141.949 43.7871L156.208 29.5281C171.904 45.5981 181.592 67.5901 181.592 91.8247Z" fill="#2035EE"/>
<path d="M92.474 2.70667V22.8299C73.443 22.8299 56.1943 30.5629 43.6889 43.0396L29.4586 28.8096C45.5864 12.6818 67.8657 2.70667 92.474 2.70667Z" fill="#2035EE"/>
<path d="M92.474 160.819V180.943C68.2395 180.943 46.2475 171.255 30.1774 155.559L44.4364 141.3C56.8844 153.373 73.8164 160.819 92.474 160.819Z" fill="black"/>
<path d="M161.469 91.8246L181.592 91.8246C181.592 116.433 171.617 138.712 155.489 154.84L141.345 140.695L141.259 140.609C153.735 128.104 161.469 110.856 161.469 91.8246Z" fill="black"/>
<path d="M156.208 29.5281L141.949 43.7871C129.444 30.8502 111.879 22.8299 92.4741 22.8299V2.70667C117.456 2.70667 140.023 12.9695 156.208 29.5281Z" fill="black"/>
<path d="M29.4586 28.8096L43.6886 43.0399C31.2123 55.5453 23.4789 72.794 23.4789 91.825H3.35602C3.35602 67.2167 13.3312 44.9371 29.4586 28.8096Z" fill="black"/>
<path d="M141.949 43.7871C154.023 56.2351 161.468 73.1674 161.468 91.8247C161.468 110.856 153.735 128.104 141.259 140.61C128.753 153.086 111.505 160.819 92.4737 160.819C73.8164 160.819 56.8841 153.374 44.4361 141.3C31.4992 128.795 23.4789 111.229 23.4789 91.8247C23.4789 72.7936 31.2119 55.5449 43.6886 43.0396C56.194 30.5633 73.4427 22.8299 92.4737 22.8299C111.878 22.8299 129.444 30.8506 141.949 43.7871Z" fill="#2035EE"/>
<path d="M172.067 46.0045C164.305 32.5497 153.172 21.1929 139.87 13.1618L137.072 17.7957C142.683 21.1835 147.808 25.1184 152.401 29.508L141.942 39.9671C129.675 28.2605 113.273 20.855 95.1807 20.1796V5.45747C107.205 5.82154 118.772 8.61215 129.602 13.7726L131.931 8.88619C119.557 2.98968 106.282 0 92.474 0C67.9464 0 44.8873 9.5512 27.5443 26.8949C10.2013 44.2387 0.649353 67.2975 0.649353 91.8247C0.649353 116.352 10.2006 139.411 27.5443 156.754C44.8877 174.098 67.9468 183.649 92.474 183.649C117.001 183.649 140.061 174.098 157.404 156.754C174.747 139.411 184.299 116.352 184.299 91.8247C184.299 75.7199 180.069 59.8754 172.067 46.0045ZM43.7503 39.2737L33.3479 28.8706C48.2038 14.9097 67.9816 6.13324 89.7677 5.45962V20.1796C72.0362 20.8413 55.9332 27.9703 43.7503 39.2737ZM39.9231 43.1009C28.6197 55.2838 21.4907 71.3869 20.8293 89.118H6.10898C6.7826 67.3319 15.559 47.5537 29.52 32.6978L39.9231 43.1009ZM20.8285 94.5314C21.5036 112.624 28.9091 129.026 40.616 141.292L30.2194 151.689C15.8524 136.753 6.79407 116.679 6.10898 94.5314H20.8285ZM44.4996 145.064C56.5896 155.969 72.3985 162.822 89.7677 163.469V178.189C68.3442 177.527 48.8613 169.03 34.0922 155.471L44.4996 145.064ZM95.1807 163.47C112.912 162.808 129.015 155.679 141.198 144.376L151.601 154.779C136.745 168.74 116.966 177.516 95.1804 178.19V163.47H95.1807ZM145.025 140.548C156.328 128.366 163.457 112.262 164.119 94.5314H178.839C178.165 116.317 169.389 136.095 155.428 150.951L145.025 140.548ZM178.843 89.118H164.119C163.471 71.7488 156.618 55.9399 145.714 43.8499L156.195 33.3689C170.084 48.4242 178.203 68.0123 178.843 89.118ZM158.762 91.8247C158.762 128.376 129.025 158.113 92.474 158.113C55.9228 158.113 26.1859 128.376 26.1859 91.8247C26.1859 55.2731 55.9224 25.5366 92.474 25.5366C129.026 25.5366 158.762 55.2734 158.762 91.8247Z" fill="#231F20"/>
<path d="M89.9697 134.398C95.2644 134.398 99.5566 130.106 99.5566 124.811C99.5566 119.517 95.2644 115.224 89.9697 115.224C84.6751 115.224 80.3829 119.517 80.3829 124.811C80.3829 130.106 84.6751 134.398 89.9697 134.398Z" fill="black"/>
<path d="M89.9697 52.5905C76.2256 52.5905 65.044 63.7721 65.044 77.5162V79.9129H84.2177V77.5162C84.2177 74.3444 86.798 71.7641 89.9697 71.7641C93.1415 71.7641 95.7218 74.3444 95.7218 77.5162C95.7218 79.2064 94.98 80.8061 93.6862 81.9055L80.3829 93.2159V110.431H99.5566V102.081L106.104 96.5149C111.691 91.7672 114.895 84.8426 114.895 77.5162C114.895 63.7721 103.714 52.5905 89.9697 52.5905V52.5905Z" fill="black"/>
</g>
<defs>
<clipPath id="clip0">
<rect width="183.649" height="183.649" fill="white" transform="translate(0.649353)"/>
</clipPath>
</defs>
</svg>
