<svg width="90" height="90" viewBox="0 0 90 90" fill="none" xmlns="http://www.w3.org/2000/svg">
<path d="M21.7499 22.8749C18.7499 19.8749 5.99994 19.125 1.87488 18.7499C1.49994 18.7499 1.12482 18.7499 0.749883 19.1248C0.374941 19.4999 0 20.25 0 20.6249V54.3749C0 55.4999 0.750059 56.25 1.87506 56.25H13.1251C13.8751 56.25 14.625 55.8751 15.0001 55.125C15.0001 54 21.7501 34.1249 22.5002 24.375C22.5 23.9999 22.5 23.25 21.7499 22.8749Z" fill="#FBBEBE"/>
<path d="M61.875 31.8749C58.125 30.7499 54.75 29.25 51.75 28.125C45 25.1249 41.9999 26.625 36 32.625C33.375 35.2499 31.5 39 31.8749 40.5C31.8749 40.8749 31.8749 40.8749 32.625 41.25C34.5 42.0001 37.125 42.375 39.7499 38.25C40.1249 37.875 40.5 37.4999 41.2499 37.4999C42.3749 37.4999 42.7498 37.125 43.8748 36.7499C44.6249 36.3749 45.3747 35.9998 46.4997 35.6249C46.8747 35.6249 46.8747 35.6249 47.2498 35.6249C47.6247 35.6249 48.3748 35.9998 48.7497 35.9998C50.625 37.875 54 40.5 57.375 43.5C62.625 47.6251 67.8749 52.1251 70.5 55.5001H70.875C68.25 48 63.75 35.2499 61.875 31.8749Z" fill="#FBBEBE"/>
<path d="M88.1248 22.5C73.4998 22.5 65.2499 26.2499 64.8748 26.2499C64.4998 26.6249 64.1247 27 63.7498 27.3749C63.7498 27.7499 63.7498 28.4999 64.1247 28.8749C66.3747 32.6248 73.8748 53.2499 74.9998 58.4998C75.3747 59.2499 76.1248 59.9998 76.8748 59.9998H88.1248C89.2498 59.9998 89.9999 59.2497 89.9999 58.1247V24.3747C89.9999 23.2501 89.2498 22.5 88.1248 22.5Z" fill="#FBBEBE"/>
<path d="M67.8748 59.25C66.3749 55.875 59.9998 51.0001 54.3748 46.5001C51.3749 43.875 48.3749 41.625 46.1249 39.7499C45.7499 40.1248 44.9999 40.1248 44.9999 40.5C43.8749 40.8749 43.4999 41.25 41.9998 41.25C38.9999 45 35.2498 46.4999 31.1249 45C29.2499 44.625 28.1249 43.1249 27.7499 41.625C26.9999 37.875 30.3749 32.625 33 30H25.4999C24 37.5001 21.3749 47.25 19.5 52.5C20.9999 54 22.5001 55.875 23.6251 56.6251C30.75 62.625 39.0001 68.6251 40.5001 69.7501C41.6251 70.5002 43.8751 71.2501 45.0001 71.2501C45.375 71.2501 45.7501 71.2501 46.1251 71.2501L40.1249 65.25C39.3749 64.4999 39.3749 63.3749 40.1249 62.625C40.875 61.8751 42 61.875 42.7499 62.625L50.2499 70.1251C51 70.8751 51.7499 70.5 52.4999 70.5C53.6249 70.1251 53.9999 69.375 54.375 68.25L45.7499 59.625C44.9999 58.8749 44.9999 57.7499 45.7499 57C46.5 56.2501 47.625 56.25 48.3749 57L57.7498 66.375C58.1248 66.7499 59.6249 66.7499 60.7499 66.375C61.1248 66 61.8749 65.6249 62.2498 64.875L51.7499 54.3749C50.9998 53.6249 50.9998 52.4999 51.7499 51.75C52.4999 51.0001 53.6249 50.9999 54.3748 51.75L65.2499 62.625C65.9999 63 66.7498 62.625 67.4999 62.2501C67.8748 61.875 68.6249 60.75 67.8748 59.25Z" fill="#FBBEBE"/>
</svg>
