<svg width="646" height="631" viewBox="0 0 646 631" fill="none" xmlns="http://www.w3.org/2000/svg">
<path fill-rule="evenodd" clip-rule="evenodd" d="M166.131 460.186C117.491 450.732 71.1515 425.605 48.8855 381.339C25.6425 335.13 26.5362 278.737 52.3026 233.886C76.7399 191.348 156.67 129.638 205.028 121.384C250.993 113.538 267.142 162.205 303.861 190.945C342.038 220.827 367.808 266.147 365.701 314.582C363.64 361.95 293.234 357.36 254.932 385.305C217.771 412.418 211.286 468.964 166.131 460.186Z" fill="#EE3A20"/>
<path fill-rule="evenodd" clip-rule="evenodd" d="M433.613 106.222C501.764 134.591 561.862 185.141 581.095 256.412C601.171 330.811 582.973 412.84 531.935 470.575C483.529 525.331 407.079 538.326 334.035 535.886C264.606 533.566 196.934 510.822 151.958 457.88C105.197 402.836 81.1656 328.977 98.7506 258.925C115.948 190.416 217.32 218.205 281.588 188.898C343.941 160.464 370.345 79.8859 433.613 106.222Z" fill="white" stroke="black" stroke-width="3"/>
<path d="M482.874 345.452C477.299 335.129 469.397 326.252 459.797 319.53C459.111 319.055 458.32 318.756 457.492 318.659C458.623 311.203 458.385 302.964 454.188 296.751C444.23 282.009 393.49 297.223 393.49 297.223C357.924 284.861 327.099 300.552 327.099 300.552C327.099 300.552 287.738 294.371 269.72 299.127C261.222 301.371 259.158 310.061 259.351 318.622H259.323C258.569 318.621 257.825 318.79 257.146 319.117C256.467 319.444 255.87 319.92 255.4 320.511C250.607 326.514 236.13 345.004 236.524 348.575C236.999 352.856 252.647 408.484 251.939 435.35L470.545 432.93C470.545 432.93 474.166 378.867 483.224 349.273C483.616 348.003 483.49 346.629 482.874 345.452Z" fill="#3F3D56"/>
<path opacity="0.1" d="M254.788 348.817L263.797 330.746L271.382 365.932L271.47 382.264L254.788 348.817Z" fill="black"/>
<path opacity="0.1" d="M461.536 348.817L452.527 330.746L442.077 364.108L444.089 383.071L461.536 348.817Z" fill="black"/>
<path d="M270.722 364.972L442.093 364.031L443.992 383.05L271.382 382.574L270.722 364.972Z" fill="#3F3D56"/>
<path opacity="0.1" d="M270.722 364.972L442.093 364.031L443.992 383.05L271.382 382.574L270.722 364.972Z" fill="black"/>
<path opacity="0.1" d="M440.681 381.199H274.878C272.552 381.199 270.666 383.09 270.666 385.423V397.422C270.666 399.754 272.552 401.646 274.878 401.646H440.681C443.007 401.646 444.894 399.754 444.894 397.422V385.423C444.894 383.09 443.007 381.199 440.681 381.199Z" fill="white"/>
<path d="M409.239 312.797C409.239 312.797 408.66 311.99 407.976 312.425C407.65 312.639 406.117 314.576 404.612 316.545C403.871 317.509 403.135 318.481 402.552 319.256C401.831 320.208 401.345 320.87 401.345 320.87L401.055 321.414L399.296 324.711L397.643 327.809L397.24 329.27L402.825 331.174L409.183 329.435L408.909 328.253L408.861 328.051L408.913 325.332L409.058 317.666L409.126 314.217V313.813L409.239 312.797Z" fill="#FFE09C"/>
<path d="M396.452 331.694C396.452 331.694 402.487 333.853 405.582 332.723C405.582 332.723 408.257 331.868 409.312 331.041C409.312 331.041 410.434 330.452 408.909 328.531C408.909 328.531 405.002 330.932 401.304 329.988L397.607 329.04L396.452 331.694Z" fill="#E7C4C3"/>
<path d="M403.184 328.963C404.125 328.41 404.51 327.314 404.042 326.514C403.575 325.714 402.433 325.514 401.491 326.067C400.55 326.62 400.166 327.717 400.633 328.517C401.1 329.317 402.243 329.517 403.184 328.963Z" fill="#FF7F8E"/>
<path d="M407.198 324.138C408.139 323.585 408.523 322.488 408.056 321.689C407.588 320.889 406.446 320.689 405.505 321.242C404.564 321.795 404.179 322.892 404.647 323.692C405.114 324.492 406.256 324.691 407.198 324.138Z" fill="#FF7F8E"/>
<path d="M408.909 325.332C408.606 325.205 408.277 325.152 407.95 325.178C407.622 325.204 407.306 325.308 407.026 325.481C406.085 326.034 405.698 327.131 406.169 327.93C406.64 328.729 407.779 328.931 408.716 328.378C408.78 328.338 408.845 328.297 408.905 328.253L408.857 328.051L408.909 325.332Z" fill="#FF7F8E"/>
<path d="M402.081 322.133C401.969 321.947 401.82 321.787 401.642 321.664C401.465 321.54 401.263 321.455 401.051 321.414L399.292 324.711C399.6 324.85 399.937 324.911 400.274 324.888C400.611 324.866 400.937 324.76 401.224 324.582C402.165 324.029 402.548 322.931 402.081 322.133Z" fill="#FF7F8E"/>
<path d="M405.992 317.303C405.847 317.07 405.644 316.878 405.404 316.745C405.164 316.612 404.894 316.543 404.62 316.545C403.88 317.509 403.143 318.481 402.56 319.256L402.584 319.304C403.051 320.111 404.193 320.301 405.135 319.748C406.076 319.195 406.451 318.102 405.992 317.303Z" fill="#FF7F8E"/>
<path d="M409.122 314.213C408.915 314.265 408.716 314.346 408.531 314.455C407.589 315.008 407.207 316.105 407.674 316.904C407.82 317.138 408.024 317.331 408.265 317.464C408.507 317.597 408.778 317.665 409.054 317.662L409.122 314.213Z" fill="#FF7F8E"/>
<path d="M399.751 327.442L399.429 326.897C399.911 326.753 400.356 326.505 400.733 326.171C400.757 326.147 400.777 326.119 400.797 326.094C401.2 325.586 401.115 326.643 401.115 326.643C401.115 326.643 400.125 327.486 399.751 327.442Z" fill="#94CC79"/>
<path d="M404.499 326.599L404.177 326.05C404.659 325.905 405.104 325.657 405.481 325.324C405.481 325.3 405.525 325.275 405.545 325.247C405.948 324.743 405.863 325.796 405.863 325.796C405.863 325.796 404.873 326.643 404.499 326.599Z" fill="#94CC79"/>
<path d="M404.065 324.339L403.743 323.791C404.224 323.647 404.669 323.4 405.046 323.069C405.067 323.04 405.091 323.016 405.111 322.992C405.513 322.484 405.429 323.537 405.429 323.537C405.429 323.537 404.439 324.376 404.065 324.339Z" fill="#94CC79"/>
<path d="M404.64 320.265L404.318 319.716C404.8 319.571 405.244 319.323 405.622 318.99C405.622 318.965 405.666 318.941 405.686 318.913C406.089 318.405 406.004 319.462 406.004 319.462C406.004 319.462 405.014 320.305 404.64 320.265Z" fill="#94CC79"/>
<path d="M407.364 315.334L407.046 314.786C407.527 314.641 407.97 314.393 408.346 314.059C408.369 314.036 408.391 314.01 408.41 313.983C408.813 313.478 408.732 314.531 408.732 314.531C408.732 314.531 407.738 315.375 407.364 315.334Z" fill="#94CC79"/>
<path d="M407.058 320.365L406.736 319.817C407.218 319.674 407.663 319.427 408.04 319.095C408.04 319.066 408.084 319.042 408.104 319.018C408.507 318.51 408.422 319.563 408.422 319.563C408.422 319.563 407.432 320.41 407.058 320.365Z" fill="#94CC79"/>
<path d="M395.462 329.988C395.462 329.988 394.689 332.005 396.452 331.682C397.236 330.771 397.772 329.671 398.009 328.491C398.009 328.491 401.819 320.119 402.946 319.353C402.946 319.353 407.911 312.546 408.446 312.446C408.446 312.446 408.619 311.784 406.885 313.184C405.151 314.584 401.353 319.974 401.353 319.974L397.731 325.893L396.878 328.253L395.462 329.988Z" fill="#E7C4C3"/>
<path opacity="0.2" d="M395.462 329.988C395.462 329.988 394.689 332.005 396.452 331.682C397.236 330.771 397.772 329.671 398.009 328.491C398.009 328.491 401.819 320.119 402.946 319.353C402.946 319.353 407.911 312.546 408.446 312.446C408.446 312.446 408.619 311.784 406.885 313.184C405.151 314.584 401.353 319.974 401.353 319.974L397.731 325.893L396.878 328.253L395.462 329.988Z" fill="white"/>
<path d="M335.609 370.967C336.273 373.155 337.09 375.293 338.055 377.366C340.826 376.785 343.552 376.005 346.211 375.034C346.296 375.005 344.686 372.895 344.517 372.722C343.862 371.996 343.081 371.394 342.212 370.947C341.363 370.576 340.317 370.858 339.395 370.906C338.14 370.971 336.878 370.991 335.609 370.967Z" fill="#FBBEBE"/>
<path d="M342.228 374.279C340.844 373.844 339.999 372.444 339.435 371.096C338.872 369.748 338.417 368.272 337.347 367.287C337.144 367.318 336.951 367.4 336.787 367.523C336.623 367.647 336.492 367.81 336.405 367.997C336.238 368.375 336.052 368.744 335.846 369.103C335.404 369.748 334.639 370.063 334.056 370.612C333.472 371.161 333.146 371.996 332.539 372.548C331.774 373.242 330.696 373.416 329.694 373.646C328.142 373.999 326.643 374.555 325.236 375.3C324.718 375.613 324.164 375.863 323.586 376.042C322.95 376.167 322.298 376.189 321.654 376.107L317.228 375.792C316.834 375.742 316.434 375.758 316.045 375.841C315.598 376.004 315.217 376.312 314.962 376.716C314.707 377.119 314.593 377.596 314.637 378.072C314.694 378.546 314.847 379.003 315.088 379.414C315.329 379.826 315.652 380.183 316.037 380.464C316.811 381.015 317.663 381.447 318.564 381.743C322.425 383.207 326.401 384.346 330.45 385.148V386.028C333.265 387.419 336.361 388.142 339.5 388.142C339.731 388.158 339.963 388.118 340.176 388.025C340.466 387.814 340.669 387.504 340.747 387.154C341.813 384.029 342.434 380.769 342.594 377.471C342.673 376.636 342.609 375.794 342.405 374.981C342.163 374.174 342.992 374.517 342.224 374.203" fill="#2F2E41"/>
<path d="M427.257 357.52C414.112 358.327 401.103 354.449 387.962 354.038C386.325 353.934 384.682 354.04 383.073 354.353C381.383 354.732 379.806 355.498 378.244 356.233C371.183 359.525 363.884 362.252 356.589 364.976L348.211 368.106C346.537 368.732 344.803 369.365 343.02 369.256C342.216 369.208 341.238 369.087 340.791 369.752C339.427 371.77 340.071 374.751 340.972 377.015C341.262 377.749 341.777 378.548 342.542 378.629C343.093 378.685 343.608 378.366 344.151 378.225C345.676 377.822 347.197 378.846 348.766 379.012C350.706 379.218 352.504 378.112 354.335 377.434C357.369 376.309 360.689 376.345 363.88 375.82C369.231 374.925 374.188 372.435 378.824 369.599C380.586 368.518 382.373 367.36 384.401 366.965C386.73 366.509 389.125 367.11 391.414 367.772C396.863 369.317 402.228 371.148 407.485 373.259C410.253 374.372 413.005 375.562 415.886 376.333C422.119 377.976 428.71 377.59 434.709 375.231C436.81 374.396 439.099 372.924 439.22 370.648C439.288 369.349 438.283 368.227 437.611 367.098C437.184 366.384 436.754 365.674 436.283 364.988C434.001 361.655 431.249 357.282 427.257 357.52Z" fill="#2F2E41"/>
<path opacity="0.1" d="M427.257 357.52C414.112 358.327 401.103 354.449 387.962 354.038C386.325 353.934 384.682 354.04 383.073 354.353C381.383 354.732 379.806 355.498 378.244 356.233C371.183 359.525 363.884 362.252 356.589 364.976L348.211 368.106C346.537 368.732 344.803 369.365 343.02 369.256C342.216 369.208 341.238 369.087 340.791 369.752C339.427 371.77 340.071 374.751 340.972 377.015C341.262 377.749 341.777 378.548 342.542 378.629C343.093 378.685 343.608 378.366 344.151 378.225C345.676 377.822 347.197 378.846 348.766 379.012C350.706 379.218 352.504 378.112 354.335 377.434C357.369 376.309 360.689 376.345 363.88 375.82C369.231 374.925 374.188 372.435 378.824 369.599C380.586 368.518 382.373 367.36 384.401 366.965C386.73 366.509 389.125 367.11 391.414 367.772C396.863 369.317 402.228 371.148 407.485 373.259C410.253 374.372 413.005 375.562 415.886 376.333C422.119 377.976 428.71 377.59 434.709 375.231C436.81 374.396 439.099 372.924 439.22 370.648C439.288 369.349 438.283 368.227 437.611 367.098C437.184 366.384 436.754 365.674 436.283 364.988C434.001 361.655 431.249 357.282 427.257 357.52Z" fill="black"/>
<path d="M360.846 371.608C362.9 372.31 364.977 372.957 367.074 373.549C368.245 371.62 370.438 370.277 370.937 368.074C370.958 368.025 370.969 367.973 370.968 367.92C370.967 367.867 370.955 367.814 370.932 367.766C370.91 367.718 370.878 367.676 370.838 367.641C370.797 367.606 370.751 367.581 370.7 367.566C369.201 366.733 367.537 366.244 365.827 366.133C364.475 366.049 363.859 367.461 363.244 368.457C362.998 368.857 361.397 371.798 360.846 371.608Z" fill="#FBBEBE"/>
<path d="M363.743 370.2C363.128 370.096 362.542 369.865 362.021 369.522C361.5 369.179 361.056 368.731 360.717 368.207C360.427 367.699 360.117 366.997 359.538 367.049C358.959 367.102 358.733 367.731 358.629 368.26C358.238 370.26 357.671 372.222 356.935 374.122C356.195 376.026 354.941 377.685 353.313 378.915C352.549 379.443 351.704 379.843 350.955 380.4C350.283 380.896 349.7 381.525 348.943 381.909C348.449 382.138 347.938 382.33 347.414 382.482C346.647 382.753 345.912 383.112 345.225 383.551C344.622 383.9 344.112 384.39 343.737 384.979C343.547 385.277 343.436 385.619 343.414 385.971C343.393 386.324 343.461 386.677 343.612 386.996C343.771 387.257 343.983 387.481 344.235 387.654C344.487 387.826 344.772 387.943 345.073 387.997C345.672 388.102 346.283 388.118 346.887 388.045C349.281 387.868 351.676 387.642 354.07 387.44C355.081 387.379 356.087 387.244 357.079 387.037C357.607 386.907 358.118 386.742 358.641 386.605C359.536 386.374 360.453 386.239 361.377 386.201C361.647 386.18 361.919 386.205 362.182 386.274C362.737 386.456 363.127 387.008 363.703 387.121C364.07 387.156 364.44 387.107 364.785 386.976C366.507 386.504 368.322 386.516 370.104 386.419C370.909 386.379 371.81 386.23 372.172 385.524C372.623 384.644 371.875 383.66 371.581 382.699C371.431 382.096 371.347 381.477 371.331 380.856C371.196 379.321 370.747 377.831 370.012 376.478C369.404 375.356 368.571 374.114 368.998 372.908C369.143 372.504 369.432 372.101 369.4 371.697C369.263 369.765 364.833 370.43 363.743 370.2Z" fill="#2F2E41"/>
<path d="M407.545 336.375C405.218 335.344 403.355 333.485 402.314 331.158C402.093 330.658 401.912 330.137 401.703 329.633C401.013 327.954 399.941 326.461 398.572 325.271C398.425 325.11 398.245 324.983 398.044 324.898C397.844 324.813 397.627 324.772 397.409 324.779C397.199 324.843 397.009 324.962 396.859 325.124C396.709 325.286 396.605 325.484 396.556 325.699C396.436 326.158 396.406 326.636 396.468 327.107C396.585 328.216 396.776 329.316 397.039 330.399L397.675 333.308C397.753 333.757 397.889 334.193 398.077 334.607C398.35 335.098 398.712 335.533 399.144 335.89C399.727 336.431 400.319 336.952 400.918 337.46C401.754 338.262 402.842 338.747 403.996 338.832C406.604 339.316 409.259 340.018 411.464 341.724C411.436 341.724 411.464 339.772 411.416 339.55C411.315 338.965 411.235 338.384 410.857 337.988C409.992 337.101 408.587 336.847 407.545 336.375Z" fill="#FBBEBE"/>
<path opacity="0.1" d="M407.545 336.375C405.218 335.344 403.355 333.485 402.314 331.158C402.093 330.658 401.912 330.137 401.703 329.633C401.013 327.954 399.941 326.461 398.572 325.271C398.425 325.11 398.245 324.983 398.044 324.898C397.844 324.813 397.627 324.772 397.409 324.779C397.199 324.843 397.009 324.962 396.859 325.124C396.709 325.286 396.605 325.484 396.556 325.699C396.436 326.158 396.406 326.636 396.468 327.107C396.585 328.216 396.776 329.316 397.039 330.399L397.675 333.308C397.753 333.757 397.889 334.193 398.077 334.607C398.35 335.098 398.712 335.533 399.144 335.89C399.727 336.431 400.319 336.952 400.918 337.46C401.754 338.262 402.842 338.747 403.996 338.832C406.604 339.316 409.259 340.018 411.464 341.724C411.436 341.724 411.464 339.772 411.416 339.55C411.315 338.965 411.235 338.384 410.857 337.988C409.992 337.101 408.587 336.847 407.545 336.375Z" fill="black"/>
<path d="M434.315 314.1C436.082 314.1 437.514 312.656 437.514 310.876C437.514 309.096 436.082 307.653 434.315 307.653C432.548 307.653 431.116 309.096 431.116 310.876C431.116 312.656 432.548 314.1 434.315 314.1Z" fill="#2F2E41"/>
<path d="M432.335 308.927C431.47 308.831 430.505 308.762 429.808 309.295C429.439 309.62 429.144 310.022 428.943 310.473C428.228 311.706 427.669 313.025 427.282 314.398C426.996 315.576 426.948 316.819 426.594 317.965C425.938 320.111 424.26 321.923 424.067 324.162C423.982 325.163 424.151 326.337 423.419 327.022C423.24 327.173 423.049 327.308 422.847 327.426C422.341 327.766 421.912 328.208 421.588 328.725C421.368 329.189 421.065 329.609 420.695 329.964C420.043 330.448 418.964 330.395 418.643 331.146C418.321 331.896 419.15 332.76 418.956 333.566C418.8 334.228 418.063 334.531 417.556 334.983C416.904 335.56 416.607 336.427 416.349 337.258C415.28 337.461 414.18 337.429 413.124 337.165C412.068 336.901 411.082 336.411 410.233 335.729C411.122 337.932 411.142 340.365 411.183 342.745C411.183 343.516 411.183 344.383 410.619 344.92C413.166 344.976 415.649 345.666 418.132 346.231C419.218 346.477 420.397 346.691 421.407 346.231C421.977 345.923 422.486 345.513 422.908 345.021C424.26 343.645 425.676 342.148 426.006 340.24C426.191 339.175 426.006 338.077 426.062 337.012C426.187 335.674 426.457 334.354 426.867 333.074C427.583 330.422 428.064 327.711 428.304 324.973C428.448 323.286 429.913 321.927 430.67 320.414C432.118 317.565 433.595 314.596 433.703 311.397C433.756 310.34 433.394 309.044 432.335 308.927Z" fill="#2F2E41"/>
<path opacity="0.1" d="M432.335 308.927C431.47 308.831 430.505 308.762 429.808 309.295C429.439 309.62 429.144 310.022 428.943 310.473C428.228 311.706 427.669 313.025 427.282 314.398C426.996 315.576 426.948 316.819 426.594 317.965C425.938 320.111 424.26 321.923 424.067 324.162C423.982 325.163 424.151 326.337 423.419 327.022C423.24 327.173 423.049 327.308 422.847 327.426C422.341 327.766 421.912 328.208 421.588 328.725C421.368 329.189 421.065 329.609 420.695 329.964C420.043 330.448 418.964 330.395 418.643 331.146C418.321 331.896 419.15 332.76 418.956 333.566C418.8 334.228 418.063 334.531 417.556 334.983C416.904 335.56 416.607 336.427 416.349 337.258C415.28 337.461 414.18 337.429 413.124 337.165C412.068 336.901 411.082 336.411 410.233 335.729C411.122 337.932 411.142 340.365 411.183 342.745C411.183 343.516 411.183 344.383 410.619 344.92C413.166 344.976 415.649 345.666 418.132 346.231C419.218 346.477 420.397 346.691 421.407 346.231C421.977 345.923 422.486 345.513 422.908 345.021C424.26 343.645 425.676 342.148 426.006 340.24C426.191 339.175 426.006 338.077 426.062 337.012C426.187 335.674 426.457 334.354 426.867 333.074C427.583 330.422 428.064 327.711 428.304 324.973C428.448 323.286 429.913 321.927 430.67 320.414C432.118 317.565 433.595 314.596 433.703 311.397C433.756 310.34 433.394 309.044 432.335 308.927Z" fill="black"/>
<path d="M429.33 360.295C426.593 358.988 424.59 356.555 422.377 354.47C418.152 350.491 412.981 347.675 408.539 343.943C405.594 341.474 402.962 338.594 399.727 336.524C396.88 334.709 393.654 333.577 390.299 333.215C389.915 333.147 389.52 333.166 389.145 333.272C388.72 333.46 388.351 333.753 388.07 334.123C386.637 335.745 385.362 337.502 384.264 339.368C378.631 348.95 370.631 357.019 364.004 365.924C363.795 366.136 363.671 366.417 363.656 366.715C363.641 367.013 363.737 367.306 363.924 367.538L365.272 370.184C366.024 371.669 367.235 373.412 368.861 373.101C369.605 372.964 370.197 372.415 370.744 371.891L376.78 366.093L383.125 360.009C386.843 356.446 390.621 352.799 393.048 348.244C394.939 351.536 398.303 353.691 400.608 356.717C401.485 357.863 402.218 359.138 402.982 360.348C404.238 362.293 405.666 364.12 407.09 365.944L414.369 375.26C415.359 376.527 416.381 377.826 417.737 378.685C419.463 379.778 421.56 380.069 423.588 380.25C426.322 380.495 429.067 380.595 431.812 380.549C433.905 380.513 436.061 380.375 437.94 379.444C439.82 378.512 441.361 376.619 441.264 374.489C441.149 373.394 440.79 372.34 440.214 371.403C437.631 366.601 434.231 362.627 429.33 360.295Z" fill="#2F2E41"/>
<path d="M436.283 315.588C437.641 315.588 438.741 314.478 438.741 313.107C438.741 311.737 437.641 310.626 436.283 310.626C434.925 310.626 433.824 311.737 433.824 313.107C433.824 314.478 434.925 315.588 436.283 315.588Z" fill="#E8E8F0"/>
<path d="M435.74 311.243C436.292 312.348 436.389 313.626 436.009 314.802C435.629 315.962 435.097 317.066 434.428 318.086C433.852 319.139 433.163 320.125 432.372 321.027C436.166 321.213 439.848 319.72 443.196 317.908C445.891 316.456 448.579 314.657 450.036 311.937C449.608 312.041 449.162 312.054 448.729 311.974C448.296 311.894 447.884 311.723 447.521 311.473C446.798 310.967 446.151 310.362 445.598 309.674L443.69 307.523C443.243 307.056 442.85 306.539 442.52 305.982C442.106 305.221 441.931 304.352 442.017 303.489C441.26 304.284 440.413 304.988 439.494 305.587C438.134 306.474 436.633 307.12 435.269 308.008C434.786 308.318 433.708 308.814 433.985 309.456C434.263 310.097 435.365 310.565 435.74 311.243Z" fill="#FBBEBE"/>
<path opacity="0.1" d="M435.74 311.243C436.292 312.348 436.389 313.626 436.009 314.802C435.629 315.962 435.097 317.066 434.428 318.086C433.852 319.139 433.163 320.125 432.372 321.027C436.166 321.213 439.848 319.72 443.196 317.908C445.891 316.456 448.579 314.657 450.036 311.937C449.608 312.041 449.162 312.054 448.729 311.974C448.296 311.894 447.884 311.723 447.521 311.473C446.798 310.967 446.151 310.362 445.598 309.674L443.69 307.523C443.243 307.056 442.85 306.539 442.52 305.982C442.106 305.221 441.931 304.352 442.017 303.489C441.26 304.284 440.413 304.988 439.494 305.587C438.134 306.474 436.633 307.12 435.269 308.008C434.786 308.318 433.708 308.814 433.985 309.456C434.263 310.097 435.365 310.565 435.74 311.243Z" fill="black"/>
<path d="M435.792 311.618C435.08 312.829 434.927 314.241 435.792 315.338C435.9 315.476 436.299 316.323 436.472 316.331C436.639 316.314 436.794 316.235 436.906 316.109C437.828 315.266 438.516 314.189 439.321 313.232C440.125 312.276 441.151 311.409 442.383 311.215C443.867 310.985 445.304 311.772 446.604 312.534C447.169 312.811 447.662 313.215 448.044 313.716C448.318 314.213 448.48 314.764 448.519 315.33C448.966 318.723 448.957 322.161 448.945 325.582C448.945 328.059 448.945 330.549 448.463 332.977C448.221 334.236 447.859 335.467 447.686 336.734C447.562 337.852 447.512 338.977 447.537 340.102V344.815C447.504 345.68 447.565 346.545 447.718 347.397C447.939 348.43 448.426 349.382 448.752 350.387C449.089 351.541 449.319 352.724 449.44 353.921L450.084 358.799C450.285 360.336 450.434 362.026 449.509 363.237C449.106 363.793 448.539 364.241 448.117 364.798C446.507 366.872 447.034 369.837 446.37 372.375C445.848 374.233 444.773 375.887 443.288 377.116C442.149 378.084 440.681 378.842 439.22 378.572C437.244 378.205 436.057 376.151 435.518 374.186C434.979 372.222 434.786 370.112 433.619 368.465C432.665 367.118 431.205 366.271 429.853 365.31C428.501 364.35 427.213 363.112 426.923 361.482C426.795 360.772 426.875 360.041 426.799 359.323C426.694 358.413 426.346 357.548 425.792 356.819C425.239 356.09 424.499 355.523 423.652 355.18C422.642 354.776 421.395 354.643 420.836 353.715C422.308 352.884 423.282 351.347 423.797 349.729C424.312 348.111 424.417 346.392 424.517 344.698L424.855 339.029C425.004 336.496 425.073 333.986 426.187 331.711C426.682 330.69 427.302 329.738 427.821 328.733C428.505 327.319 429.09 325.859 429.571 324.364C430.376 322.04 431.181 319.716 431.905 317.364C432.193 316.227 432.623 315.132 433.184 314.104C433.756 313.119 434.649 311.832 435.792 311.618Z" fill="#EE3A20"/>
<path d="M423.238 348.446L424.735 348.498L425.052 346.235C425.093 345.781 425.199 345.335 425.366 344.912C425.614 344.465 425.902 344.042 426.227 343.649C427.7 341.563 427.591 338.807 427.958 336.262C428.444 332.881 429.853 329.718 431.245 326.607L434.158 320.115C434.735 319.012 435.013 317.777 434.963 316.533C434.991 315.528 435.285 311.881 435.313 310.884C435.313 310.513 434.508 310.719 434.327 310.388C433.965 309.666 433.466 311.623 432.786 312.05C432.106 312.478 431.728 313.261 431.442 314.011C430.814 315.645 430.432 317.364 429.833 319.014C429.233 320.664 428.436 322.286 427.121 323.452C426.525 323.976 425.841 324.388 425.278 324.949C423.471 326.74 423.294 329.568 423.23 332.122C423.197 333.619 422.892 348.446 423.238 348.446Z" fill="#2F2E41"/>
<path d="M444.773 308.911C443.32 309.484 442.524 311.066 442.117 312.583C441.711 314.1 441.542 315.722 440.761 317.081C438.934 320.265 434.283 321.193 432.999 324.634C432.597 325.76 432.597 326.994 432.48 328.192C432.247 330.658 431.438 333.034 431.201 335.503C431.074 337.418 431.118 339.341 431.333 341.248L432.943 360.691C433.18 363.515 433.172 366.513 432.456 369.24C434.102 369.559 435.816 369.131 437.341 368.433C438.866 367.735 440.262 366.775 441.731 365.964C444.258 364.564 447.046 363.576 449.259 361.712C449.66 361.399 450.004 361.018 450.273 360.586C450.716 359.819 450.756 358.887 450.965 358.024C451.156 357.334 451.4 356.659 451.694 356.007C452.504 354.047 453.211 352.046 453.81 350.011C454.222 348.662 454.546 347.287 454.78 345.896C454.957 344.791 455.053 343.669 455.15 342.551C455.268 340.8 455.614 339.072 456.18 337.411C457.594 333.452 458.396 329.3 458.558 325.098C458.604 324.491 458.562 323.881 458.433 323.286C458.185 322.565 457.856 321.875 457.452 321.229C456.776 319.954 456.369 318.55 455.733 317.251C454.293 314.326 451.746 312.103 449.082 310.243C447.787 309.335 446.258 308.33 444.773 308.911Z" fill="#2F2E41"/>
<path d="M410.784 340.631C409.629 340.023 408.583 339.225 407.69 338.271C407.288 337.795 406.95 337.258 406.535 336.79C405.491 335.671 404.133 334.895 402.64 334.563C401.159 334.237 399.645 334.089 398.13 334.123C397.115 334.058 396.098 334.182 395.128 334.486C394.643 334.645 394.206 334.926 393.858 335.3C393.511 335.675 393.263 336.132 393.14 336.629C392.919 337.839 393.708 339.013 394.653 339.792C395.534 340.512 396.57 341.016 397.679 341.264C398.583 341.421 399.495 341.528 400.411 341.583C405.795 342.148 410.599 345.085 415.299 347.76C419.443 350.114 423.667 352.311 427.97 354.353C428.139 353.059 428.211 351.755 428.183 350.451C428.159 349.479 428.11 347.994 427.193 347.421C426.127 346.755 424.376 346.614 423.169 346.211C420.396 345.299 417.687 344.2 415.062 342.923C413.61 342.21 412.185 341.446 410.784 340.631Z" fill="#FBBEBE"/>
<path d="M443.845 303.135C445.199 297.969 442.143 292.687 437.02 291.336C431.896 289.986 426.644 293.078 425.29 298.244C423.935 303.409 426.991 308.692 432.115 310.042C437.239 311.393 442.49 308.3 443.845 303.135Z" fill="#FBBEBE"/>
<path d="M447.517 319.877C446.66 320.878 446.229 322.169 445.654 323.355C444.471 325.8 442.612 327.898 441.683 330.456C440.701 333.151 440.733 336.354 438.81 338.473C438.476 338.84 438.073 339.195 437.977 339.683C437.963 339.979 437.93 340.275 437.876 340.566C437.602 341.333 436.347 341.373 436.114 342.156C436.045 342.386 436.082 342.636 435.997 342.862C435.804 343.366 435.14 343.443 434.693 343.75C433.76 344.383 433.949 345.852 433.285 346.768C432.994 347.11 432.616 347.369 432.192 347.516C431.767 347.664 431.311 347.695 430.871 347.607C429.999 347.427 429.16 347.113 428.384 346.675C428.109 346.521 427.805 346.427 427.491 346.396C427.119 346.408 426.759 346.53 426.457 346.747C424.686 347.877 423.853 350.116 423.865 352.23C423.877 354.344 424.602 356.378 425.342 358.355C425.445 358.688 425.611 358.998 425.833 359.267C426.421 359.888 427.443 359.791 428.223 359.444C429.004 359.097 429.712 358.553 430.549 358.399C432.034 358.129 433.486 359.154 434.975 359.069C436.077 359.004 437.055 358.363 437.969 357.742C439.433 356.749 440.922 355.724 441.992 354.32C442.652 353.457 443.135 352.476 443.711 351.553C444.447 350.427 445.253 349.349 446.125 348.325L451.653 341.539C452.208 340.896 452.707 340.206 453.142 339.477C453.645 338.492 454.034 337.452 454.301 336.379C454.828 334.567 455.359 332.747 455.448 330.855C455.478 329.303 455.344 327.751 455.045 326.228C454.855 324.709 454.448 323.225 453.838 321.822C452.7 319.304 449.774 317.235 447.517 319.877Z" fill="#2F2E41"/>
<path d="M464.24 315.56C464.682 313.904 464.726 312.166 464.368 310.49C464.01 308.814 463.26 307.246 462.179 305.918C463.648 299.636 460.449 293.346 454.816 291.018C455.017 285.128 451.295 279.721 445.561 278.204C439.602 276.635 433.49 279.79 430.919 285.398C427.298 283.514 423.467 283.715 422.204 285.93C420.884 288.246 422.868 291.889 426.63 294.064C427.816 294.759 429.113 295.241 430.464 295.488C431.045 297.134 431.962 298.64 433.157 299.908C434.353 301.177 435.8 302.181 437.405 302.855C437.306 305.237 437.871 307.599 439.037 309.677C440.203 311.754 441.923 313.465 444.004 314.616C444.232 316.272 444.842 317.851 445.787 319.228C445.676 319.517 445.582 319.812 445.505 320.111C444.322 324.61 446.881 329.185 451.215 330.327C455.548 331.469 460.023 328.749 461.202 324.251C461.519 323.051 461.573 321.798 461.363 320.575C462.753 319.193 463.747 317.461 464.24 315.56Z" fill="#3F3D56"/>
<path opacity="0.1" d="M424.686 287.1C425.95 284.885 429.776 284.68 433.402 286.568C435.965 280.96 442.085 277.801 448.044 279.374C448.314 279.443 448.579 279.528 448.849 279.616C447.83 278.986 446.723 278.51 445.565 278.204C439.606 276.635 433.494 279.79 430.923 285.398C427.302 283.514 423.471 283.715 422.208 285.93C420.888 288.246 422.872 291.889 426.634 294.064C427.34 294.472 428.084 294.809 428.855 295.073C425.258 292.87 423.399 289.36 424.686 287.1Z" fill="black"/>
<path opacity="0.1" d="M447.992 321.281C448.069 320.982 448.163 320.687 448.273 320.398C447.329 319.019 446.718 317.439 446.491 315.782C444.409 314.632 442.689 312.922 441.523 310.845C440.358 308.768 439.793 306.407 439.892 304.025C438.286 303.351 436.839 302.347 435.644 301.078C434.449 299.81 433.531 298.304 432.951 296.658C432.163 296.517 431.393 296.292 430.653 295.985C431.268 297.52 432.181 298.917 433.34 300.094C434.498 301.272 435.879 302.206 437.401 302.843C437.302 305.225 437.867 307.587 439.033 309.665C440.199 311.742 441.919 313.453 444 314.604C444.228 316.26 444.838 317.839 445.783 319.216C445.672 319.504 445.578 319.799 445.501 320.099C444.322 324.582 446.861 329.141 451.171 330.303C449.789 329.301 448.745 327.901 448.177 326.289C447.609 324.678 447.544 322.931 447.992 321.281Z" fill="black"/>
<path d="M438.704 304.018C439.354 303.523 439.345 302.416 438.685 301.545C438.025 300.673 436.964 300.368 436.314 300.863C435.665 301.357 435.673 302.465 436.333 303.336C436.993 304.207 438.055 304.512 438.704 304.018Z" fill="#FBBEBE"/>
<path d="M320.745 218.872C324.365 218.872 327.3 215.929 327.3 212.3C327.3 208.67 324.365 205.727 320.745 205.727C317.125 205.727 314.19 208.67 314.19 212.3C314.19 215.929 317.125 218.872 320.745 218.872Z" fill="#3F3D56"/>
<path d="M334.969 250.769C345.122 250.769 353.353 240.076 353.353 226.885C353.353 213.694 345.122 203 334.969 203C324.816 203 316.585 213.694 316.585 226.885C316.585 240.076 324.816 250.769 334.969 250.769Z" fill="#3F3D56"/>
<path opacity="0.1" d="M334.969 243.555C325.759 243.555 318.13 234.756 316.79 223.278C316.65 224.475 316.58 225.679 316.58 226.885C316.58 240.074 324.813 250.769 334.969 250.769C345.125 250.769 353.353 240.074 353.353 226.885C353.353 225.679 353.284 224.475 353.144 223.278C351.808 234.772 344.179 243.555 334.969 243.555Z" fill="black"/>
<path d="M374.144 296.836C373.742 298.45 372.048 299.765 370.165 300.673C366.197 302.589 361.312 303.158 356.568 303.352C355.361 303.425 354.15 303.402 352.947 303.283C350.464 302.989 348.163 301.927 346.726 300.415C346.521 300.249 346.379 300.019 346.324 299.761C346.334 299.606 346.375 299.455 346.444 299.317C346.513 299.178 346.609 299.055 346.726 298.954C349.257 296.186 353.474 294.484 357.707 293.273C360.926 292.341 366.535 289.929 370.048 290.255C373.46 290.55 374.643 294.778 374.144 296.836Z" fill="#3F3D56"/>
<path opacity="0.1" d="M374.144 296.836C373.742 298.45 372.048 299.765 370.165 300.673C366.197 302.589 361.312 303.158 356.568 303.352C355.361 303.425 354.15 303.402 352.947 303.283C350.464 302.989 348.163 301.927 346.726 300.415C346.521 300.249 346.379 300.019 346.324 299.761C346.334 299.606 346.375 299.455 346.444 299.317C346.513 299.178 346.609 299.055 346.726 298.954C349.257 296.186 353.474 294.484 357.707 293.273C360.926 292.341 366.535 289.929 370.048 290.255C373.46 290.55 374.643 294.778 374.144 296.836Z" fill="black"/>
<path d="M323.743 284.676C322.536 287.049 322.318 289.806 323.135 292.341C323.969 294.862 325.53 297.078 327.622 298.708C332.76 302.843 339.81 303.412 346.38 303.36C352.142 303.308 357.895 302.912 363.61 302.174C365.513 301.927 367.437 301.637 369.199 300.874C371.344 299.942 373.223 298.236 373.991 296.033C374.76 293.83 374.217 291.103 372.382 289.626C370.772 288.327 368.587 288.149 366.539 288.012L354.81 287.306C355.969 286.128 357.51 285.462 358.922 284.611C360.793 283.473 362.037 281.569 363.401 279.854C365.413 277.288 367.827 275.045 370.241 272.814C370.643 275.009 372.008 276.812 373.637 278.329C375.267 279.846 377.146 281.065 378.844 282.505C382.948 285.999 385.901 290.744 390.219 293.971C393.189 293.188 395.966 291.798 398.375 289.888L396.697 286.842C396.559 286.523 396.342 286.245 396.065 286.035C395.587 285.745 394.975 285.894 394.424 285.813C392.951 285.592 392.307 283.885 391.728 282.509C390.142 278.725 387.101 275.792 384.485 272.62C382.578 270.283 380.887 267.775 379.435 265.128C378.562 263.551 377.765 261.901 376.578 260.541C375.391 259.181 373.738 258.12 371.935 258.12C370.326 258.12 368.877 258.927 367.509 259.734C363.341 262.217 359.332 264.956 355.502 267.936C353.49 269.494 351.507 271.144 349.157 272.1C348.167 272.503 347.145 272.778 346.175 273.266C344.513 274.125 343.25 275.578 341.89 276.865C337.045 281.46 330.41 284.438 323.743 284.676Z" fill="#605D82"/>
<path d="M348.271 251.955C348.219 253.362 347.921 254.748 347.39 256.05C347.122 256.698 346.723 257.282 346.219 257.768C345.715 258.254 345.117 258.631 344.461 258.875C343.528 259.125 342.551 259.157 341.604 258.967C340.777 258.878 339.98 258.602 339.274 258.161C338.176 257.402 337.629 256.05 337.427 254.727C337.226 253.404 337.319 252.052 337.19 250.721C337.065 249.645 336.86 248.579 336.578 247.534C336.494 247.187 336.405 246.84 336.317 246.493C336.228 246.146 336.152 245.799 336.076 245.452C335.999 245.105 335.939 244.802 335.882 244.471C335.826 244.14 335.794 243.914 335.766 243.636C335.74 242.804 335.605 241.979 335.363 241.183C335.134 240.668 334.847 240.18 334.506 239.731C334.361 239.521 334.221 239.327 334.104 239.097C333.729 238.535 333.555 237.863 333.609 237.189C333.624 237.084 333.65 236.982 333.685 236.882C333.698 236.844 333.712 236.806 333.73 236.769C333.873 236.73 334.005 236.656 334.114 236.554C334.222 236.452 334.305 236.325 334.353 236.184C334.408 235.88 334.382 235.567 334.277 235.276C334.159 234.871 333.995 234.48 333.79 234.111C333.657 233.868 333.203 233.429 333.199 233.15C333.199 232.589 334.285 232.138 334.728 231.916C336.08 231.236 337.588 230.929 339.097 231.028C340.063 231.093 341.109 231.391 341.644 232.206C342.127 232.936 342.047 233.885 342.268 234.736C342.287 234.86 342.338 234.977 342.417 235.075C342.522 235.171 342.654 235.231 342.795 235.248C343.031 235.296 343.273 235.305 343.511 235.276C343.575 235.273 343.638 235.264 343.7 235.248C344.073 235.179 344.425 235.028 344.731 234.804C344.932 234.748 345.133 234.708 345.33 234.671H345.354C346.159 237.205 346.26 239.916 346.915 242.506C347.241 243.789 347.72 245.056 347.773 246.38C347.773 246.436 347.773 246.497 347.773 246.553C347.773 246.981 347.748 247.408 347.773 247.832C347.78 248.022 347.801 248.21 347.837 248.397C347.909 248.697 347.998 248.994 348.102 249.285C348.131 249.377 348.159 249.47 348.183 249.567C348.203 249.635 348.219 249.703 348.231 249.773C348.349 250.495 348.363 251.23 348.271 251.955Z" fill="#FBBEBE"/>
<path d="M337.053 235.381C342.262 235.381 346.485 231.147 346.485 225.924C346.485 220.701 342.262 216.467 337.053 216.467C331.844 216.467 327.622 220.701 327.622 225.924C327.622 231.147 331.844 235.381 337.053 235.381Z" fill="#FBBEBE"/>
<path d="M396.939 277.454C396.664 274.876 395.749 272.409 394.279 270.276L395.015 274.654C394.71 274.742 394.385 274.738 394.082 274.644C393.778 274.551 393.508 274.37 393.305 274.125C392.907 273.628 392.603 273.062 392.408 272.455C391.336 269.788 389.934 267.267 388.235 264.951C382.232 264.446 376.293 261.953 371.014 259.04C365.735 256.127 360.789 252.645 355.575 249.615C354.67 249.069 353.729 248.586 352.758 248.171C351.128 247.517 349.298 247.178 347.752 246.408L347.443 246.242C347.092 246.054 346.761 245.832 346.453 245.581C346.287 245.444 346.13 245.297 345.982 245.141C345.21 244.242 344.598 243.217 344.171 242.111C343.342 240.271 343.045 238.048 342.22 236.208C342.6 235.853 343.027 235.551 343.487 235.309L343.688 235.208C344.016 235.054 344.357 234.93 344.706 234.837C344.908 234.78 345.109 234.74 345.306 234.704H345.33C346.265 234.552 347.223 234.629 348.123 234.925C349.434 235.373 350.537 236.261 351.647 237.104C353.398 238.432 355.216 239.682 356.806 241.203C357.715 242.079 358.548 243.039 359.526 243.834C360.341 244.465 361.2 245.037 362.097 245.544L378.007 255.046C379.801 256.115 381.6 257.188 383.354 258.326C386.022 260.049 388.585 261.917 391.16 263.785L395.703 267.085C396.201 267.408 396.637 267.818 396.991 268.295C397.302 268.83 397.496 269.426 397.558 270.042C397.936 272.527 397.723 275.067 396.939 277.454Z" fill="#FBBEBE"/>
<path d="M350.613 259.068C349.973 261.929 347.092 263.66 345.584 266.173C343.709 269.292 344.473 272.919 345.181 276.494L341.322 279.826C340.614 280.435 339.902 281.036 339.142 281.589C338.026 282.341 336.861 283.015 335.653 283.607L332.241 285.366C331.182 285.962 330.061 286.438 328.897 286.786C326.652 287.363 324.27 286.959 322.057 286.294C321.795 286.225 321.543 286.122 321.308 285.987C321.17 285.904 321.05 285.794 320.954 285.664C320.734 285.271 320.654 284.814 320.729 284.369C320.954 280.625 321.868 276.958 322.777 273.318C323.255 271.133 323.902 268.988 324.712 266.903C325.511 265.119 326.429 263.391 327.461 261.731C328.668 259.686 329.875 257.624 331.484 255.869C332.172 255.11 332.941 254.392 333.351 253.448C333.919 252.149 333.697 250.66 333.814 249.248C333.901 248.185 334.182 247.147 334.643 246.186C334.89 245.669 335.186 245.177 335.528 244.717C335.685 245.08 335.838 245.444 335.995 245.803L336.297 246.513C336.43 246.815 336.558 247.122 336.699 247.425C337.075 248.291 337.448 249.158 337.818 250.027C338.217 251.121 338.789 252.144 339.512 253.057C340.28 253.928 341.411 254.562 342.562 254.437C343.102 254.346 343.616 254.136 344.065 253.822C344.515 253.508 344.889 253.098 345.161 252.621C345.7 251.666 346.09 250.633 346.316 249.559C346.633 248.252 346.677 246.893 346.445 245.569C346.042 243.015 344.976 240.408 344.191 238.036C343.871 237.246 343.686 236.407 343.644 235.555C343.644 235.459 343.653 235.363 343.672 235.268V235.196C344 235.042 344.341 234.918 344.69 234.825C344.892 234.768 345.093 234.728 345.29 234.691C345.982 238.457 346.675 242.215 347.37 245.964C347.37 246.053 347.406 246.142 347.422 246.23C347.519 246.771 347.62 247.308 347.732 247.844C347.845 248.381 347.942 248.816 348.062 249.297C348.102 249.458 348.147 249.623 348.191 249.785C348.316 250.229 348.453 250.664 348.593 251.1C349.575 253.735 351.213 256.361 350.613 259.068Z" fill="#EE3A20"/>
<path d="M388.895 299.281C388.86 299.836 388.967 300.392 389.205 300.895C389.792 301.976 391.217 302.222 392.424 302.323C399.584 302.915 406.788 302.695 413.899 301.669C414.285 301.641 414.659 301.524 414.993 301.326C416.003 300.616 415.395 298.885 414.277 298.329C413.158 297.772 411.863 297.925 410.655 297.671C409.451 297.366 408.305 296.867 407.259 296.194C404.805 294.78 402.391 293.3 400.017 291.756C398.596 290.84 396.918 289.864 395.321 290.409C390.979 291.877 388.863 294.597 388.895 299.281Z" fill="#2F2E41"/>
<path d="M336.112 245.262L336.075 245.46L336.015 245.791C335.818 246.807 335.572 247.808 335.295 248.829C334.526 251.608 333.5 254.348 332.478 257.043L324.266 278.749C323.574 280.573 322.886 282.38 322.101 284.179C321.839 284.772 321.57 285.39 321.296 285.979C320.335 288.145 319.409 290.385 319.103 292.696C318.902 294.225 318.701 295.787 319.003 297.3C319.305 298.813 320.21 300.293 321.662 300.85C322.363 301.125 323.364 301.492 323.171 302.222C323.071 302.625 322.616 302.819 322.206 302.884C321.667 302.971 321.117 302.937 320.593 302.786C320.069 302.635 319.585 302.369 319.176 302.008C318.411 301.33 317.82 300.269 316.802 300.156C316.098 300.08 315.45 300.503 314.79 300.798C312.154 302.008 309.088 301.161 306.32 300.302C306.537 299.18 307.664 298.438 308.778 298.216C309.893 297.994 311.052 298.147 312.195 298.119C312.56 298.138 312.923 298.044 313.233 297.849C313.513 297.597 313.713 297.269 313.808 296.904C314.541 294.723 315.087 292.482 315.438 290.207C315.808 287.827 315.961 285.414 316.484 283.066C316.886 281.234 317.522 279.459 318.061 277.66C319.108 273.956 319.966 270.202 320.632 266.411C320.97 264.838 321.212 263.245 321.357 261.642C321.449 260.311 321.405 258.971 321.534 257.648C321.747 255.924 322.105 254.221 322.604 252.557C323.095 250.737 323.582 248.925 324.073 247.11C324.797 244.423 325.574 241.635 327.408 239.549C328.045 238.814 328.826 238.218 329.702 237.798C330.579 237.378 331.532 237.143 332.502 237.108C332.866 237.107 333.229 237.146 333.585 237.225L333.762 237.27C334.15 237.37 334.523 237.525 334.868 237.73C335.436 237.366 335.721 237.496 336.1 238.048C336.428 238.639 336.583 239.31 336.546 239.985C336.575 241.754 336.43 243.522 336.112 245.262Z" fill="#FBBEBE"/>
<path d="M336.731 247.404L336.707 247.429L336.578 247.558L335.295 248.845L334.663 246.19L332.502 237.096C332.866 237.094 333.229 237.134 333.585 237.213C333.6 237.109 333.626 237.006 333.661 236.906L333.762 237.257L334.494 239.755L335.882 244.495L336.112 245.278L336.731 247.404Z" fill="#EE3A20"/>
<path d="M343.938 211.977H333.13C330.463 211.977 328.302 214.145 328.302 216.818V219.961C328.302 222.635 330.463 224.803 333.13 224.803H343.938C346.605 224.803 348.766 222.635 348.766 219.961V216.818C348.766 214.145 346.605 211.977 343.938 211.977Z" fill="#3F3D56"/>
<path d="M349.961 218.872C353.581 218.872 356.516 215.929 356.516 212.3C356.516 208.67 353.581 205.727 349.961 205.727C346.341 205.727 343.407 208.67 343.407 212.3C343.407 215.929 346.341 218.872 349.961 218.872Z" fill="#3F3D56"/>
<path opacity="0.1" d="M349.804 205.723H349.563C351.251 205.796 352.846 206.52 354.015 207.743C355.184 208.967 355.836 210.595 355.836 212.29C355.836 213.984 355.184 215.613 354.015 216.836C352.846 218.06 351.251 218.783 349.563 218.856H349.804C351.543 218.856 353.21 218.163 354.439 216.931C355.669 215.698 356.359 214.027 356.359 212.284C356.359 210.54 355.669 208.869 354.439 207.636C353.21 206.404 351.543 205.711 349.804 205.711V205.723Z" fill="black"/>
<path opacity="0.1" d="M320.745 205.723H320.986C319.298 205.796 317.703 206.52 316.534 207.743C315.366 208.967 314.713 210.595 314.713 212.29C314.713 213.984 315.366 215.613 316.534 216.836C317.703 218.06 319.298 218.783 320.986 218.856H320.745C319.884 218.856 319.032 218.686 318.237 218.356C317.441 218.025 316.719 217.541 316.11 216.931C315.502 216.321 315.019 215.596 314.689 214.799C314.36 214.001 314.19 213.147 314.19 212.284C314.19 211.42 314.36 210.566 314.689 209.768C315.019 208.971 315.502 208.247 316.11 207.636C316.719 207.026 317.441 206.542 318.237 206.212C319.032 205.881 319.884 205.711 320.745 205.711V205.723Z" fill="black"/>
<path opacity="0.1" d="M348.968 223.516H332.358C331.849 223.516 331.362 223.314 331.002 222.954C330.642 222.593 330.439 222.105 330.438 221.595V222.874C330.439 223.384 330.642 223.873 331.002 224.234C331.361 224.595 331.849 224.798 332.358 224.799H348.984C349.492 224.798 349.98 224.595 350.34 224.234C350.699 223.873 350.902 223.384 350.903 222.874V221.595C350.902 221.849 350.851 222.1 350.753 222.334C350.655 222.567 350.512 222.78 350.333 222.958C350.153 223.136 349.94 223.278 349.705 223.373C349.471 223.469 349.22 223.517 348.968 223.516Z" fill="black"/>
<path d="M405.316 290.792C405.316 290.792 406.354 290.974 406.523 290.13C406.608 289.727 406.322 287.137 405.996 284.547C405.839 283.272 405.67 282.001 405.533 280.984C405.368 279.737 405.248 278.878 405.248 278.878L405.058 278.249L403.94 274.48L402.886 270.93L402.109 269.534L396.52 272.261L393.044 278.285L394.122 278.967L394.311 279.088L396.295 281.17L401.856 287.02L404.358 289.654L404.652 289.961L405.316 290.792Z" fill="#FFE09C"/>
<path d="M400.922 267.137C400.922 267.137 394.798 270.018 393.325 273.149C393.325 273.149 391.949 275.783 391.776 277.183C391.776 277.183 391.374 278.462 393.913 278.777C393.913 278.777 395.068 274.077 398.532 272.035L402 269.998L400.922 267.137Z" fill="#E7C4C3"/>
<path d="M402.518 274.369C402.817 273.252 402.293 272.14 401.349 271.886C400.405 271.632 399.398 272.333 399.099 273.45C398.8 274.567 399.323 275.679 400.267 275.933C401.212 276.187 402.219 275.486 402.518 274.369Z" fill="#FF7F8E"/>
<path d="M401.853 281.674C402.149 280.56 401.627 279.454 400.686 279.203C399.746 278.952 398.743 279.65 398.447 280.764C398.152 281.877 398.674 282.983 399.615 283.234C400.555 283.485 401.558 282.787 401.853 281.674Z" fill="#FF7F8E"/>
<path d="M396.295 281.17C396.616 281.039 396.901 280.834 397.127 280.571C397.353 280.307 397.513 279.994 397.594 279.657C397.892 278.543 397.369 277.434 396.428 277.183C395.486 276.933 394.484 277.631 394.19 278.745C394.167 278.82 394.15 278.897 394.138 278.975L394.327 279.096L396.295 281.17Z" fill="#FF7F8E"/>
<path d="M403.775 278.479C403.995 278.535 404.225 278.543 404.449 278.503C404.673 278.464 404.886 278.377 405.075 278.249L403.956 274.48C403.623 274.604 403.325 274.809 403.089 275.075C402.853 275.342 402.687 275.663 402.604 276.009C402.31 277.135 402.833 278.228 403.775 278.479Z" fill="#FF7F8E"/>
<path d="M404.423 284.998C404.704 285.065 404.998 285.058 405.276 284.979C405.554 284.9 405.807 284.751 406.012 284.547C405.855 283.272 405.686 282.001 405.549 280.984H405.497C404.556 280.73 403.554 281.432 403.256 282.545C402.958 283.659 403.485 284.748 404.423 284.998Z" fill="#FF7F8E"/>
<path d="M404.358 289.642C404.474 289.447 404.562 289.236 404.62 289.017C404.918 287.903 404.395 286.798 403.453 286.548C403.168 286.478 402.87 286.484 402.588 286.565C402.306 286.646 402.049 286.798 401.844 287.008L404.358 289.642Z" fill="#FF7F8E"/>
<path d="M401.594 272.77L402.238 272.943C401.985 273.41 401.835 273.926 401.799 274.456C401.797 274.491 401.797 274.526 401.799 274.561C401.884 275.227 401.155 274.388 401.155 274.388C401.155 274.388 401.28 273.02 401.594 272.77Z" fill="#94CC79"/>
<path d="M398.661 276.933L399.309 277.107C399.053 277.571 398.904 278.087 398.87 278.616C398.868 278.651 398.868 278.686 398.87 278.721C398.954 279.386 398.226 278.547 398.226 278.547C398.226 278.547 398.347 277.179 398.661 276.933Z" fill="#94CC79"/>
<path d="M400.665 278.309L401.308 278.479C401.055 278.945 400.906 279.461 400.87 279.992C400.868 280.026 400.868 280.062 400.87 280.096C400.958 280.762 400.226 279.923 400.226 279.923C400.226 279.923 400.359 278.555 400.665 278.309Z" fill="#94CC79"/>
<path d="M403.24 281.783L403.888 281.952C403.633 282.418 403.483 282.935 403.449 283.465C403.447 283.5 403.447 283.535 403.449 283.57C403.533 284.236 402.805 283.397 402.805 283.397C402.805 283.397 402.93 282.029 403.24 281.783Z" fill="#94CC79"/>
<path d="M404.845 287.5L405.489 287.673C405.236 288.139 405.087 288.654 405.05 289.182C405.048 289.217 405.048 289.252 405.05 289.287C405.139 289.953 404.407 289.118 404.407 289.118C404.407 289.118 404.531 287.746 404.845 287.5Z" fill="#94CC79"/>
<path d="M401.353 283.502L401.996 283.675C401.742 284.147 401.595 284.669 401.566 285.204C401.564 285.239 401.564 285.274 401.566 285.309C401.65 285.975 400.922 285.14 400.922 285.14C400.922 285.14 401.043 283.748 401.353 283.502Z" fill="#94CC79"/>
<path d="M402.914 267.67C402.914 267.67 401.992 265.576 400.902 267.137C400.994 268.405 401.41 269.628 402.109 270.688C402.109 270.688 405.445 279.786 405.167 281.178C405.167 281.178 406.483 289.965 406.157 290.457C406.157 290.457 406.519 291.079 406.777 288.743C407.034 286.406 405.903 279.544 405.903 279.544L404.25 272.411L403.143 269.99L402.914 267.67Z" fill="#E7C4C3"/>
<path opacity="0.2" d="M402.914 267.67C402.914 267.67 401.992 265.576 400.902 267.137C400.994 268.405 401.41 269.628 402.109 270.688C402.109 270.688 405.445 279.786 405.167 281.178C405.167 281.178 406.483 289.965 406.157 290.457C406.157 290.457 406.519 291.079 406.777 288.743C407.034 286.406 405.903 279.544 405.903 279.544L404.25 272.411L403.143 269.99L402.914 267.67Z" fill="white"/>
<path d="M391.849 271.14C391.849 271.14 393.502 275.917 395.015 274.646L393.808 268.404L391.849 271.14Z" fill="#FBBEBE"/>
<path d="M278.741 290.76C278.741 290.76 293.327 315.399 296.735 318.691C296.735 318.691 311.309 333.861 303.902 332.812C303.358 332.735 292.692 323.694 292.068 322.209C291.444 320.724 271.277 294.455 271.277 294.455L274.154 291.801L278.741 290.76Z" fill="#A0616A"/>
<path opacity="0.1" d="M278.741 290.76C278.741 290.76 293.327 315.399 296.735 318.691C296.735 318.691 311.309 333.861 303.902 332.812C303.358 332.735 292.692 323.694 292.068 322.209C291.444 320.724 271.277 294.455 271.277 294.455L274.154 291.801L278.741 290.76Z" fill="black"/>
<path d="M292.08 371.229C292.08 371.229 287.412 377.079 289.36 379.419C291.307 381.759 301.009 386.234 304.139 386.048C307.447 385.854 318.532 386.452 318.922 381.368C318.922 381.368 319.699 379.028 309.587 378.637C299.476 378.245 302.582 367.715 302.582 367.715L292.08 371.229Z" fill="#2F2E41"/>
<path d="M236.456 321.693C236.456 321.693 231.788 337.682 245.791 340.413L260.96 339.634C260.96 339.634 282.355 335.342 288.193 338.464C288.193 338.464 290.527 338.868 289.746 341.975C288.966 345.081 290.913 366.158 290.913 366.158V373.178C290.913 373.178 304.139 373.178 305.696 371.616C305.696 371.616 304.529 365.375 305.696 360.32C306.863 355.264 303.753 339.255 303.753 339.255L303.443 329.649C303.419 328.459 303.08 327.296 302.46 326.28C301.84 325.265 300.961 324.434 299.914 323.871C299.178 323.481 298.36 323.272 297.528 323.262C297.528 323.262 271.076 318.973 261.741 319.752C252.406 320.531 236.456 321.693 236.456 321.693Z" fill="#605D82"/>
<path d="M262.518 270.595C262.518 270.595 269.519 278.785 270.295 281.517C271.072 284.248 279.647 291.256 279.647 291.256C279.647 291.256 273.422 295.936 274.589 298.276C275.756 300.616 266.421 290.477 266.421 290.477L255.504 274.496L262.518 270.595Z" fill="#EE3A20"/>
<path opacity="0.1" d="M262.518 270.595C262.518 270.595 269.519 278.785 270.295 281.517C271.072 284.248 279.647 291.256 279.647 291.256C279.647 291.256 273.422 295.936 274.589 298.276C275.756 300.616 266.421 290.477 266.421 290.477L255.504 274.496L262.518 270.595Z" fill="black"/>
<path d="M267.173 261.235C267.173 261.235 263.672 272.532 263.672 276.837C263.672 281.141 248.889 275.666 249.279 273.326C249.67 270.986 257.838 262.405 258.228 258.895C258.619 255.385 267.173 261.235 267.173 261.235Z" fill="#A0616A"/>
<path opacity="0.1" d="M255.504 269.034C255.504 269.034 241.888 265.524 239.944 285.418C238.001 305.312 241.498 307.648 235.663 319.74C229.829 331.832 275.341 321.301 275.341 321.301C275.341 321.301 273.007 318.57 265.616 319.74L262.115 309.21C262.115 309.21 260.948 304.53 267.563 304.53C274.178 304.53 271.064 290.877 271.064 290.877C271.064 290.877 267.563 279.177 265.616 278.007C263.668 276.837 260.184 269.816 255.504 269.034Z" fill="black"/>
<path d="M255.504 268.259C255.504 268.259 241.888 264.749 239.944 284.639C238.001 304.53 241.498 306.874 235.663 318.965C229.829 331.057 275.341 320.527 275.341 320.527C275.341 320.527 273.007 317.795 265.616 318.965L262.115 308.435C262.115 308.435 260.96 303.763 267.575 303.763C274.19 303.763 271.076 290.11 271.076 290.11C271.076 290.11 267.575 278.41 265.628 277.24C263.68 276.07 260.184 269.034 255.504 268.259Z" fill="#EE3A20"/>
<path d="M263.684 268.255C270.773 268.255 276.52 262.493 276.52 255.385C276.52 248.277 270.773 242.514 263.684 242.514C256.595 242.514 250.849 248.277 250.849 255.385C250.849 262.493 256.595 268.255 263.684 268.255Z" fill="#A0616A"/>
<path d="M261.206 321.285L293.464 340.619L323.477 312.579L287.698 300.084L261.95 317.658L261.206 321.285Z" fill="#DADAE5"/>
<path d="M299.274 267.166L289.235 297.102L322.52 306.7L336.727 266.218L299.274 267.166Z" fill="#DADAE5"/>
<path opacity="0.03" d="M296.595 264.955L299.319 267.452L336.772 266.504L337.633 264.051L296.595 264.955Z" fill="black"/>
<path opacity="0.03" d="M286.708 295.379L296.595 264.955L299.319 267.452L289.533 296.638L286.708 295.379Z" fill="black"/>
<path d="M296.55 264.668L299.274 267.166L336.727 266.218L337.588 263.765L296.55 264.668Z" fill="#EFF0F4"/>
<path d="M286.664 295.097L296.55 264.668L299.274 267.166L289.489 296.352L286.664 295.097Z" fill="#EFF0F4"/>
<path opacity="0.03" d="M296.55 264.668L300.715 268.574L338.172 267.626L337.588 263.765L296.55 264.668Z" fill="black"/>
<path opacity="0.03" d="M286.664 295.097L296.55 264.668L300.715 268.574L290.929 297.76L286.664 295.097Z" fill="black"/>
<path opacity="0.03" d="M286.728 295.525L287.638 301.314L323.638 313.846L322.588 307.128L286.728 295.525Z" fill="black"/>
<path opacity="0.03" d="M260.115 314.552L286.728 295.525L287.891 301.31L261.749 320.805L260.115 314.552Z" fill="black"/>
<path d="M286.664 295.097L287.445 300.088L323.445 312.619L322.52 306.7L286.664 295.097Z" fill="#EFF0F4"/>
<path d="M260.047 314.12L286.664 295.097L287.698 300.084L261.556 319.579L260.047 314.12Z" fill="#EFF0F4"/>
<path opacity="0.03" d="M286.664 295.097L287.445 300.088L323.445 312.619L322.52 306.7L286.664 295.097Z" fill="black"/>
<path opacity="0.03" d="M260.047 314.12L286.664 295.097L287.698 300.084L261.556 319.579L260.047 314.12Z" fill="black"/>
<path d="M260.047 314.12L261.25 321.314L293.42 340.587L292.627 333.183L260.047 314.12Z" fill="#CCCAD6"/>
<path d="M274.705 312.982C274.705 312.982 274.146 314.051 274.999 314.544C275.402 314.778 278.311 315.35 281.232 315.899C282.664 316.165 284.101 316.424 285.256 316.625C286.664 316.876 287.638 317.029 287.638 317.029H288.378L292.852 317.114L297.061 317.194L298.844 316.827L297.818 309.815L292.49 303.945L291.376 304.889L291.187 305.05L288.257 306.478L279.993 310.513L276.275 312.329L275.84 312.542L274.705 312.982Z" fill="#FFE09C"/>
<path d="M301.854 316.367C301.854 316.367 300.852 308.701 297.963 306.014C297.963 306.014 295.589 303.594 294.128 302.932C294.128 302.932 292.885 302.049 291.661 304.711C291.661 304.711 296.357 307.592 297.371 312.074L298.381 316.557L301.854 316.367Z" fill="#E7C4C3"/>
<path d="M296.206 313.631C296.805 312.692 296.394 311.357 295.289 310.65C294.184 309.942 292.803 310.129 292.205 311.068C291.607 312.007 292.018 313.342 293.123 314.05C294.228 314.757 295.608 314.57 296.206 313.631Z" fill="#FF7F8E"/>
<path d="M288.867 311.966C289.465 311.027 289.054 309.692 287.949 308.985C286.844 308.277 285.463 308.464 284.865 309.403C284.267 310.342 284.678 311.677 285.783 312.385C286.888 313.093 288.269 312.905 288.867 311.966Z" fill="#FF7F8E"/>
<path d="M288.257 306.482C288.289 306.879 288.415 307.263 288.625 307.601C288.835 307.938 289.123 308.22 289.464 308.423C290.567 309.129 291.947 308.944 292.543 308.02C293.138 307.096 292.732 305.748 291.625 305.042C291.55 304.994 291.472 304.949 291.392 304.909L291.203 305.07L288.257 306.482Z" fill="#FF7F8E"/>
<path d="M288.579 315.556C288.442 315.777 288.353 316.025 288.318 316.283C288.283 316.541 288.302 316.803 288.374 317.053L292.848 317.138C292.831 316.727 292.712 316.327 292.501 315.975C292.29 315.623 291.995 315.329 291.641 315.12C290.555 314.431 289.175 314.62 288.579 315.556Z" fill="#FF7F8E"/>
<path d="M281.288 314.011C281.118 314.294 281.024 314.617 281.014 314.948C281.004 315.278 281.079 315.606 281.232 315.899C282.664 316.165 284.101 316.424 285.256 316.625L285.292 316.573C285.887 315.637 285.477 314.301 284.374 313.595C283.272 312.889 281.888 313.075 281.288 314.011Z" fill="#FF7F8E"/>
<path d="M276.275 312.337C276.447 312.529 276.645 312.698 276.862 312.837C277.965 313.543 279.345 313.357 279.94 312.433C280.112 312.149 280.206 311.825 280.216 311.492C280.225 311.16 280.148 310.831 279.993 310.537L276.275 312.337Z" fill="#FF7F8E"/>
<path d="M295.516 315.153L295.114 315.794C294.697 315.358 294.19 315.018 293.629 314.798L293.512 314.769C292.76 314.632 293.915 314.128 293.915 314.128C293.915 314.128 295.359 314.729 295.516 315.153Z" fill="#94CC79"/>
<path d="M292.02 310.521L291.617 311.167C291.201 310.729 290.694 310.387 290.132 310.166L290.016 310.138C289.267 310.005 290.418 309.496 290.418 309.496C290.418 309.496 291.863 310.097 292.02 310.521Z" fill="#94CC79"/>
<path d="M289.839 312.236L289.436 312.877C289.019 312.441 288.513 312.101 287.952 311.881L287.835 311.852C287.082 311.715 288.237 311.211 288.237 311.211C288.237 311.211 289.678 311.804 289.839 312.236Z" fill="#94CC79"/>
<path d="M285.183 313.85L284.781 314.495C284.365 314.057 283.858 313.716 283.296 313.495L283.179 313.466C282.427 313.333 283.582 312.825 283.582 312.825C283.582 312.825 285.022 313.41 285.183 313.85Z" fill="#94CC79"/>
<path d="M278.439 313.608L278.037 314.253C277.619 313.815 277.111 313.474 276.548 313.252L276.432 313.224C275.683 313.091 276.834 312.583 276.834 312.583C276.834 312.583 278.274 313.18 278.439 313.608Z" fill="#94CC79"/>
<path d="M283.972 311.187L283.57 311.828C283.153 311.39 282.647 311.049 282.085 310.828L281.968 310.799C281.216 310.666 282.371 310.158 282.371 310.158C282.371 310.158 283.811 310.759 283.972 311.187Z" fill="#94CC79"/>
<path d="M300.57 318.356C300.57 318.356 303.157 318.074 301.837 316.367C300.436 316.024 298.97 316.049 297.58 316.44C297.58 316.44 286.567 316.932 285.139 316.141C285.139 316.141 275.16 314.527 274.758 314.019C274.758 314.019 273.953 314.197 276.399 315.286C278.846 316.375 286.672 317.513 286.672 317.513L294.973 318.175L297.959 317.803L300.57 318.356Z" fill="#E7C4C3"/>
<path opacity="0.2" d="M300.57 318.356C300.57 318.356 303.157 318.074 301.837 316.367C300.436 316.024 298.97 316.049 297.58 316.44C297.58 316.44 286.567 316.932 285.139 316.141C285.139 316.141 275.16 314.527 274.758 314.019C274.758 314.019 273.953 314.197 276.399 315.286C278.846 316.375 286.672 317.513 286.672 317.513L294.973 318.175L297.959 317.803L300.57 318.356Z" fill="white"/>
<path d="M292.724 314.398C292.603 314.776 292.574 315.177 292.639 315.567C292.704 315.958 292.861 316.328 293.098 316.646C293.854 317.715 295.202 318.062 296.112 317.42C297.021 316.779 297.138 315.403 296.377 314.314C296.325 314.241 296.269 314.168 296.212 314.1L295.971 314.18L292.724 314.398Z" fill="#FF7F8E"/>
<path d="M292.627 333.183L322.52 306.7L323.437 312.546L293.42 340.587L292.627 333.183Z" fill="#CCCAD6"/>
<path d="M326.398 308.209L322.52 306.7L337.588 263.765L340.461 265.798L326.398 308.209Z" fill="#CCCAD6"/>
<g opacity="0.1">
<path opacity="0.1" d="M302.139 370.789C302.169 369.751 302.319 368.719 302.586 367.715L302.389 367.784C302.196 368.773 302.112 369.781 302.139 370.789Z" fill="white"/>
<path opacity="0.1" d="M304.139 385.261C301.009 385.447 291.303 380.969 289.36 378.629C289.103 378.313 288.946 377.928 288.909 377.523C288.852 377.852 288.862 378.189 288.94 378.514C289.017 378.839 289.16 379.144 289.36 379.411C291.303 381.751 301.009 386.226 304.139 386.04C307.447 385.846 318.532 386.443 318.922 381.36C318.949 381.223 318.931 381.082 318.87 380.956C317.977 385.628 307.362 385.08 304.139 385.261Z" fill="white"/>
</g>
<path d="M315.506 290.602C315.506 290.602 316.198 289.796 315.571 289.215C315.269 288.932 312.903 287.851 310.521 286.794C309.35 286.277 308.171 285.769 307.233 285.366L305.282 284.53L304.65 284.369L300.848 283.397L297.271 282.481L295.661 282.437L295.122 288.646L298.498 294.73L299.632 294.149L299.83 294.048L302.618 293.419L310.497 291.66L314.033 290.853L314.436 290.76L315.506 290.602Z" fill="#FFE09C"/>
<path d="M293.005 282.247C293.005 282.247 292.325 288.993 294.253 291.869C294.253 291.869 295.798 294.403 296.908 295.274C296.908 295.274 297.794 296.275 299.375 294.25C299.375 294.25 295.939 290.845 295.975 286.814L296.007 282.779L293.005 282.247Z" fill="#E7C4C3"/>
<path d="M300.18 288.746C300.878 288.065 300.795 286.844 299.994 286.018C299.193 285.192 297.978 285.074 297.28 285.754C296.582 286.435 296.666 287.656 297.467 288.482C298.267 289.308 299.482 289.426 300.18 288.746Z" fill="#FF7F8E"/>
<path d="M306.116 291.641C306.814 290.961 306.73 289.74 305.929 288.914C305.129 288.088 303.914 287.97 303.216 288.65C302.518 289.33 302.601 290.551 303.402 291.377C304.203 292.203 305.418 292.322 306.116 291.641Z" fill="#FF7F8E"/>
<path d="M302.634 293.423C302.688 293.079 302.659 292.728 302.549 292.398C302.44 292.068 302.254 291.77 302.006 291.526C301.202 290.719 299.995 290.582 299.29 291.264C298.586 291.946 298.679 293.164 299.48 293.991C299.533 294.048 299.589 294.102 299.649 294.153L299.846 294.052L302.634 293.423Z" fill="#FF7F8E"/>
<path d="M304.191 285.608C304.353 285.446 304.478 285.253 304.559 285.039C304.641 284.826 304.676 284.597 304.662 284.369L300.86 283.397C300.794 283.747 300.816 284.109 300.923 284.449C301.031 284.789 301.22 285.097 301.475 285.345C302.264 286.177 303.479 286.294 304.191 285.608Z" fill="#FF7F8E"/>
<path d="M310.09 288.4C310.294 288.19 310.44 287.932 310.516 287.649C310.591 287.366 310.593 287.069 310.521 286.786C309.35 286.269 308.171 285.761 307.233 285.358L307.189 285.394C306.493 286.076 306.577 287.298 307.378 288.125C308.179 288.952 309.394 289.081 310.09 288.4Z" fill="#FF7F8E"/>
<path d="M314.033 290.853C313.927 290.652 313.791 290.469 313.631 290.308C312.826 289.481 311.619 289.364 310.919 290.046C310.714 290.254 310.567 290.513 310.493 290.796C310.418 291.079 310.418 291.377 310.493 291.66L314.033 290.853Z" fill="#FF7F8E"/>
<path d="M298.156 284.559L298.635 284.095C298.904 284.551 299.27 284.943 299.705 285.245L299.797 285.293C300.413 285.559 299.319 285.757 299.319 285.757C299.319 285.757 298.224 284.954 298.156 284.559Z" fill="#94CC79"/>
<path d="M300.232 289.239L300.707 288.771C300.976 289.229 301.341 289.622 301.777 289.925L301.87 289.969C302.485 290.239 301.391 290.437 301.391 290.437C301.391 290.437 300.28 289.61 300.232 289.239Z" fill="#94CC79"/>
<path d="M302.433 288.202L302.912 287.734C303.181 288.192 303.546 288.585 303.982 288.888L304.075 288.932C304.69 289.202 303.596 289.4 303.596 289.4C303.596 289.4 302.485 288.597 302.433 288.202Z" fill="#94CC79"/>
<path d="M306.73 287.766L307.209 287.298C307.478 287.755 307.842 288.149 308.275 288.452L308.372 288.5C308.984 288.767 307.893 288.964 307.893 288.964C307.893 288.964 306.783 288.162 306.73 287.766Z" fill="#94CC79"/>
<path d="M312.448 289.323L312.927 288.855C313.194 289.314 313.558 289.707 313.993 290.009L314.09 290.054C314.701 290.324 313.611 290.522 313.611 290.522C313.611 290.522 312.5 289.715 312.448 289.323Z" fill="#94CC79"/>
<path d="M307.233 290.272L307.712 289.808C307.982 290.264 308.347 290.656 308.782 290.957C308.811 290.978 308.842 290.994 308.875 291.006C309.491 291.272 308.396 291.474 308.396 291.474C308.396 291.474 307.286 290.667 307.233 290.272Z" fill="#94CC79"/>
<path d="M294.486 280.802C294.486 280.802 292.221 280.524 293.005 282.247C294.133 282.824 295.39 283.102 296.655 283.054C296.655 283.054 306.155 284.853 307.217 285.813C307.217 285.813 315.414 289.194 315.667 289.719C315.667 289.719 316.387 289.719 314.52 288.303C312.653 286.887 306.203 284.325 306.203 284.325L299.25 282.085L296.627 281.799L294.486 280.802Z" fill="#E7C4C3"/>
<path opacity="0.2" d="M294.486 280.802C294.486 280.802 292.221 280.524 293.005 282.247C294.133 282.824 295.39 283.102 296.655 283.054C296.655 283.054 306.155 284.853 307.217 285.813C307.217 285.813 315.414 289.194 315.667 289.719C315.667 289.719 316.387 289.719 314.52 288.303C312.653 286.887 306.203 284.325 306.203 284.325L299.25 282.085L296.627 281.799L294.486 280.802Z" fill="white"/>
<path d="M282.902 290.199C284.057 289.591 285.103 288.793 285.996 287.839C286.398 287.363 286.736 286.826 287.151 286.358C288.196 285.239 289.553 284.463 291.046 284.131C292.527 283.805 294.041 283.657 295.556 283.691C296.571 283.626 297.588 283.75 298.558 284.054C299.043 284.213 299.48 284.493 299.828 284.868C300.176 285.243 300.423 285.7 300.546 286.197C300.767 287.407 299.979 288.581 299.033 289.36C298.152 290.08 297.116 290.584 296.007 290.832C295.103 290.989 294.191 291.096 293.275 291.151C287.891 291.716 283.087 294.653 278.387 297.328C274.243 299.68 271.893 299.571 267.591 301.613C267.422 300.322 265.475 301.322 265.503 300.019C265.527 299.047 265.576 297.562 266.493 296.989C267.559 296.323 269.31 296.182 270.517 295.779C273.29 294.867 275.999 293.768 278.625 292.491C280.076 291.778 281.502 291.014 282.902 290.199Z" fill="#A0616A"/>
<path opacity="0.1" d="M247.348 286.588L267.978 305.308C267.978 305.308 271.869 297.51 273.036 297.51C274.202 297.51 259.033 274.513 259.033 274.513C259.033 274.513 255.142 269.833 252.808 272.173C250.474 274.513 243.457 272.935 247.348 286.588Z" fill="black"/>
<path d="M246.958 285.809L267.575 304.53C267.575 304.53 271.466 296.727 272.633 296.727C273.8 296.727 258.627 273.73 258.627 273.73C258.627 273.73 254.736 269.046 252.402 271.386C250.068 273.726 243.067 272.156 246.958 285.809Z" fill="#EE3A20"/>
<path d="M280.902 252.811C281.352 252.309 281.718 251.736 281.984 251.116C283.763 247.082 280.942 242.014 276.126 240.626C273.712 239.92 271.008 240.061 268.597 239.311C266.658 238.71 265.024 237.572 263.246 236.685C259.904 235.033 256.206 234.238 252.482 234.369C248.841 234.498 244.881 235.781 243.389 238.601C241.208 242.708 245.219 247.88 242.789 251.879C241.003 254.816 236.669 255.683 233.076 256.958C229.356 258.248 225.969 260.353 223.161 263.119C220.345 265.943 218.333 269.816 219.749 273.318C220.574 275.372 222.437 276.978 223.918 278.749C226.388 281.655 227.833 285.297 228.029 289.111C228.225 292.925 227.16 296.696 225 299.842C224.308 300.838 223.499 301.81 223.214 302.94C222.53 305.635 225.29 308.346 228.481 308.871C231.672 309.395 234.983 308.201 237.466 306.438C239.758 304.854 241.603 302.702 242.821 300.193C245.771 293.923 243.699 286.879 243.405 280.129C243.369 279.342 243.405 278.487 243.956 277.869C244.809 276.945 246.419 276.97 247.795 276.849C251.356 276.534 254.635 274.533 256.144 271.773C259.029 266.464 255.669 259.044 260.711 255.05C267.056 250.023 276.19 257.971 280.902 252.811Z" fill="#3F3D56"/>
<path opacity="0.1" d="M276.126 240.61H276.086C277.969 242.797 278.677 245.75 277.558 248.3C277.292 248.92 276.926 249.492 276.476 249.995C271.764 255.155 262.63 247.207 256.285 252.234C251.243 256.228 254.603 263.648 251.718 268.957C250.221 271.717 246.93 273.718 243.369 274.032C241.992 274.154 240.383 274.129 239.53 275.053C238.963 275.671 238.942 276.526 238.979 277.313C239.272 284.062 241.345 291.107 238.395 297.376C237.176 299.886 235.332 302.038 233.04 303.622C230.557 305.377 227.249 306.587 224.055 306.063L223.833 306.014C224.379 306.779 225.071 307.426 225.869 307.92C226.667 308.413 227.555 308.742 228.481 308.887C231.676 309.408 234.963 308.197 237.466 306.438C239.758 304.854 241.603 302.702 242.821 300.193C245.771 293.923 243.698 286.879 243.405 280.129C243.369 279.342 243.405 278.487 243.956 277.869C244.809 276.945 246.419 276.97 247.795 276.849C251.356 276.534 254.635 274.533 256.144 271.773C259.029 266.464 255.669 259.044 260.711 255.05C267.056 250.023 276.19 257.971 280.902 252.811C281.352 252.309 281.718 251.736 281.984 251.116C283.763 247.07 280.942 242.034 276.126 240.61Z" fill="black"/>
</svg>
