<svg width="30" height="30" viewBox="0 0 30 30" fill="none" xmlns="http://www.w3.org/2000/svg">
<g clip-path="url(#clip0)">
<path d="M19.729 4.38533C19.1242 4.15424 18.447 4.45676 18.2159 5.06133C17.9847 5.66578 18.2873 6.3433 18.8918 6.57446C23.0341 8.15854 25.8984 12.1514 25.8984 16.7578C25.8984 22.7673 21.0094 27.6563 15 27.6563C8.99057 27.6563 4.10156 22.7673 4.10156 16.7578C4.10156 12.1489 6.96727 8.15825 11.1078 6.57463C11.7123 6.34342 12.0149 5.6659 11.7837 5.06145C11.5525 4.45694 10.8748 4.15442 10.2705 4.38551C5.22568 6.31506 1.75781 11.1734 1.75781 16.7578C1.75781 24.0775 7.68105 30 15 30C22.3196 30 28.2422 24.0768 28.2422 16.7578C28.2422 11.1709 24.7722 6.31401 19.729 4.38533Z" fill="black" fill-opacity="0.5"/>
<path d="M15 0C14.3528 0 13.8281 0.524648 13.8281 1.17188V12.6475C13.8281 13.2947 14.3528 13.8194 15 13.8194C15.6472 13.8194 16.1719 13.2947 16.1719 12.6475V1.17188C16.1719 0.524648 15.6472 0 15 0Z" fill="black" fill-opacity="0.5"/>
</g>
<defs>
<clipPath id="clip0">
<rect width="30" height="30" fill="white"/>
</clipPath>
</defs>
</svg>
